<svg xmlns="http://www.w3.org/2000/svg" width="267.967" height="121.467" viewBox="0 0 267.967 121.467">
  <g id="Group_30" data-name="Group 30" transform="translate(-76.449 -56.835)">
    <path id="Path_31" data-name="Path 31" d="M738.322,311.466c0-11.648-8.558-20.93-19.208-20.93-28.075,0-28.075-1.141-56.149-1.141s-28.075,3.155-56.149,3.155-28.073.473-56.147.473-28.072-2.982-56.145-2.982c-10.65,0-21.488,9.777-21.488,21.425,0,38.427,3.988,38.427,3.988,76.854,0,11.648,6.85,22.542,17.5,22.542,28.075,0,28.075-4.328,56.149-4.328s28.075,3.349,56.15,3.349,28.073-3.037,56.146-3.037,28.072,1.8,56.145,1.8c10.65,0,21.889-8.676,21.889-20.323,0-38.427-2.681-38.427-2.681-76.854m-29.254,86.719c-25.557,0-25.557-1.476-51.114-1.476S632.4,399.2,606.84,399.2s-25.559-2.75-51.118-2.75-25.558,3.555-51.118,3.555c-9.7,0-15.931-8.948-15.931-18.514,0-31.559-3.631-31.559-3.631-63.118,0-9.566,9.867-17.6,19.562-17.6,25.557,0,25.557,2.449,51.114,2.449s25.558-.388,51.115-.388,25.559-2.591,51.118-2.591,25.559.937,51.117.937a17.27,17.27,0,0,1,17.488,17.189c0,31.559,2.44,31.559,2.44,63.118,0,9.566-10.231,16.691-19.927,16.691" transform="translate(-396.587 -232.56)" fill="#fff5de"/>
    <path id="Path_32" data-name="Path 32" d="M814.317,384.534c-1.416-4.849-5.027-7.67-10.453-8.157a49.718,49.718,0,0,0-5.975-.184c-.311.017-.612.04-.916.075a3.822,3.822,0,0,0-1.842.862l-.068.053c-.968.682-.879,1.775-.766,3.159.03.371.064.786.086,1.26.134,2.26.166,4.866.2,7.385s.062,5.146.2,7.455c.031.344.036.713.044,1.082.027,1.516.065,3.591,2.081,3.931a18.371,18.371,0,0,0,3.672.1c.469-.025.951-.042,1.43-.058s.967-.034,1.432-.059c.41-.022.807-.051,1.222-.1a12.222,12.222,0,0,0,6.589-3.362c3.226-3.018,4.488-8.547,3.068-13.447m-13.558,9.954c0-.187,0-.382-.009-.607-.073-1.073-.076-2.437-.077-3.88,0-1.422,0-2.892-.078-4.056a11.353,11.353,0,0,0-.119-1.548c-.167-1.376-.224-2.253.389-2.617a7.31,7.31,0,0,1,.957-.115,6.42,6.42,0,0,1,6.5,3.963,6.647,6.647,0,0,1-1,5.974c-1.624,2.478-4.041,3.93-5.092,3.986s-1.317-.128-1.356-.165c-.112-.107-.111-.547-.111-.936" transform="translate(-599.8 -287.454)" fill="#fff5de"/>
    <path id="Path_33" data-name="Path 33" d="M867.421,395.474c-.433-1.213-.881-2.467-1.695-4.958-.586-1.795-.951-2.947-1.26-3.918-.552-1.742-.917-2.893-2.051-6.143l-.137-.3c-.88-1.966-1.17-2.431-3.383-2.467a3.908,3.908,0,0,0-3.592,2.777c-.867,2.475-1.316,3.707-1.766,4.939s-.9,2.474-1.773,4.958c-.864,2.465-1.357,3.7-1.833,4.893s-.982,2.457-1.856,4.952a1.987,1.987,0,0,0,.263,1.812,2.472,2.472,0,0,0,1.985,1.025h0a2.8,2.8,0,0,1,.694.086,4.236,4.236,0,0,0,1.015.126h.034a2.368,2.368,0,0,0,2.245-1.5,11.731,11.731,0,0,0,.5-2.119,10.973,10.973,0,0,1,.414-1.836.827.827,0,0,1,.444-.093c1.509.016,2.263.022,3.018.027s1.506.01,3.014.027c.188,0,.206.067.223.124.3,1.006.482,1.507.659,1.992s.343.941.628,1.9a2.125,2.125,0,0,0,1.967,1.627,5.429,5.429,0,0,0,1.01-.072,3.979,3.979,0,0,1,.762-.054,2.294,2.294,0,0,0,1.874-.928,2.066,2.066,0,0,0,.305-1.883c-.818-2.505-1.269-3.768-1.706-4.989M857.136,391.9c.394-1.218.642-1.862.9-2.541.2-.529.413-1.071.693-1.9.284.862.511,1.416.732,1.956a24.6,24.6,0,0,1,.9,2.507c-.776-.008-2.465-.016-3.228-.024" transform="translate(-633.797 -288.418)" fill="#fff5de"/>
    <path id="Path_34" data-name="Path 34" d="M901.763,379.926c.723,1.421,1.07,2.138,1.416,2.856s.7,1.449,1.43,2.883a3.79,3.79,0,0,1,.516,1.533,40.1,40.1,0,0,1-.154,4.047c-.083,1.027-.169,2.089-.159,4.177a1.884,1.884,0,0,0,1.916,1.711l2.524-.019a1.853,1.853,0,0,0,1.223-.479,1.683,1.683,0,0,0,.562-1.245c-.011-2.075-.07-3.13-.128-4.15-.056-1-.114-2.035-.125-4.071a3.708,3.708,0,0,1,.341-1.608c.7-1.413,1.084-2.078,1.49-2.782s.812-1.411,1.533-2.866c.7-1.42,1.094-2.126,1.47-2.809s.782-1.418,1.5-2.868a1.566,1.566,0,0,0-.082-1.551,1.928,1.928,0,0,0-1.669-.885h0a5.691,5.691,0,0,1-1.121-.1,7.548,7.548,0,0,0-1.433-.116h0c-.847,0-1.2.771-1.386,1.181-.864,1.875-1.354,2.806-1.829,3.706s-.966,1.834-1.8,3.633c-.812-1.723-1.218-2.648-1.61-3.542-.414-.945-.843-1.923-1.741-3.82a1.628,1.628,0,0,0-1.575-.915,5.7,5.7,0,0,1-1.121-.1,7.414,7.414,0,0,0-1.433-.118h0a1.625,1.625,0,0,0-1.383.793,1.868,1.868,0,0,0-.069,1.807Z" transform="translate(-665.871 -284.562)" fill="#fff5de"/>
    <path id="Path_35" data-name="Path 35" d="M956.4,406.065a7.746,7.746,0,0,0,5.573-4.96,7.008,7.008,0,0,0-.8-6.79c-1.229-1.633-3.265-2.713-5.061-3.666-.812-.432-1.581-.839-2.218-1.262-1.014-.682-1.342-.951-1.336-1.527a1.492,1.492,0,0,1,.4-1.084,1.331,1.331,0,0,1,.981-.337,2.373,2.373,0,0,1,.963.254,8.684,8.684,0,0,1,.863.612,5.088,5.088,0,0,0,2.405,1.323,1.112,1.112,0,0,0,.422-.068,5.243,5.243,0,0,0,2.272-1.828,1.961,1.961,0,0,0-.07-1.81l-.049-.124c-1.04-2.7-4.193-3.976-6.857-4.048a7.819,7.819,0,0,0-2.349.272,7.365,7.365,0,0,0-4.922,9.712c1.069,2.805,3.9,4.128,6.177,5.19,1.4.654,2.728,1.273,3.228,2.038a2.157,2.157,0,0,1-.063,2.01,2.421,2.421,0,0,1-2.07.874,3.227,3.227,0,0,1-2.513-1.278.722.722,0,0,0-.055-.065,6.428,6.428,0,0,1-.718-1c-.467-.745-.995-1.589-2.016-1.71-.023,0-.082-.005-.088-.005-1.309,0-3.921,1.39-3.979,3.085a.76.76,0,0,0,.01.152c.675,4.074,4.95,6.312,8.824,6.417a9.772,9.772,0,0,0,3.036-.374" transform="translate(-694.892 -290.356)" fill="#fff5de"/>
    <path id="Path_36" data-name="Path 36" d="M1026.167,395.291c-4.992.026-8.46,3.645-8.433,8.8.026,4.953,3.426,8.281,8.459,8.281h.061a8.491,8.491,0,0,0,6.217-2.395,8.276,8.276,0,0,0,2.221-5.972c-.026-5.13-3.509-8.714-8.525-8.714m-3.073,8.773c-.011-2.107,1.049-4.246,3.095-4.257h.016c2.034,0,3.108,2.125,3.119,4.224a4.434,4.434,0,0,1-.823,2.769,2.777,2.777,0,0,1-2.289,1.056c-2.286,0-3.108-2.043-3.117-3.792" transform="translate(-741.207 -299.558)" fill="#fff5de"/>
    <path id="Path_37" data-name="Path 37" d="M1078.735,380.465a.692.692,0,0,0-.124-.152,2.832,2.832,0,0,0-1.969-.538l-.629.006c-.105,0-.206,0-.334-.01h-.162c-3.395,0-5.515,1.618-5.963,4.514a6.076,6.076,0,0,0-.1.94,5.923,5.923,0,0,1-.062.683c-.15.027-.374.043-.5.052-.146.01-.279.021-.379.036a1.245,1.245,0,0,0-1.079.764,6.631,6.631,0,0,0-.057,2.8c.215.872,1.219.875,1.883.876h.215c.084,1.669.086,4.621.087,7.038,0,1.887,0,3.517.04,4.125a.687.687,0,0,0,.033.17.961.961,0,0,0,.986.7c.05,0,.28-.01.346-.01.044,0,.2.007.214.007.287,0,.646.022,1,.044.374.023.741.045,1.027.045.023,0,.1,0,.124,0l.184-.015a1.251,1.251,0,0,0,1.188-.646.686.686,0,0,0,.067-.26c.032-.58-.012-2.794-.063-5.357-.043-2.158-.087-4.381-.089-5.762.191-.014.5-.018.757-.021a5.7,5.7,0,0,0,1.869-.185,1.541,1.541,0,0,0,.85-1.1.571.571,0,0,0,.008-.071,7.765,7.765,0,0,0-.158-1.657l-.049-.3c-.009-.054-.011-.114-.015-.175-.019-.278-.076-1.125-.87-1.189a4.052,4.052,0,0,0-.469-.023c-.221,0-.469.011-.722.022s-.484.021-.709.021a2.838,2.838,0,0,1-.443-.027,3.144,3.144,0,0,1,.026-.524,4.308,4.308,0,0,0,.033-.62c-.008-.172.464-.531.964-.573a.535.535,0,0,1,.081-.006,2.573,2.573,0,0,1,.658.143,2.985,2.985,0,0,0,.857.17,1.174,1.174,0,0,0,.875-.36,3.319,3.319,0,0,0,.628-1.333l.052-.239a2.615,2.615,0,0,0-.107-2.012" transform="translate(-772.537 -289.739)" fill="#fff5de"/>
    <path id="Path_38" data-name="Path 38" d="M821.325,484.548c-.013-1.741-.03-3.906.027-6.2.043-1.695.067-3.467.092-5.216.014-1.044.029-2.08.047-3.086.026-1.471.1-2.918.169-4.194.088-1.67.163-3.112.115-4.219a.909.909,0,0,0-.031-.2c-.33-1.243-1.619-2.041-3.365-2.082a5.232,5.232,0,0,0-1.745.247c-2.525.992-2.552,3.78-2.573,6.02-.016,1.639-.031,3.189-.813,3.906a11.467,11.467,0,0,1-3.791.4c-.514-.012-1.024-.037-1.518-.061s-.946-.045-1.387-.055l-.283-.005c-1.02-.1-1.236-.182-1.352-.506a12.126,12.126,0,0,1-.265-3.2c-.018-2.923-.044-6.926-3.725-7.013a6.384,6.384,0,0,0-1.722.225,2.183,2.183,0,0,0-.219.074c-1.537.658-1.436,2.02-1.341,3.337a15.38,15.38,0,0,1,.048,2.079c-.026,1.4-.137,2.821-.255,4.327-.129,1.658-.263,3.372-.3,5.235-.037,2.6-.15,5.17-.249,7.436-.093,2.115-.173,3.944-.154,5.135a3.453,3.453,0,0,0,.815,2.127,3.607,3.607,0,0,0,2.329.806,3.916,3.916,0,0,0,4.016-2.663,22.623,22.623,0,0,0,.392-5.067c0-.922.006-1.794.07-2.687a2.712,2.712,0,0,1,.374-1.786,2.035,2.035,0,0,1,1.393-.323c.808-.012,1.707-.112,2.66-.218a25.512,25.512,0,0,1,3.248-.229,6.711,6.711,0,0,1,.825.065c1.263.235,1.139,2.593.846,5.65-.235,2.447-.456,4.757.489,6.129a3.813,3.813,0,0,0,3.073,1.486,4.333,4.333,0,0,0,3.337-1.324,2.945,2.945,0,0,0,.733-2.379c0-.58,0-1.241-.01-1.967" transform="translate(-601.383 -339.917)" fill="#fff5de"/>
    <path id="Path_39" data-name="Path 39" d="M889.025,461.54c-10.22.624-14.32,8.673-13.849,16.372.661,10.842,8.345,15.282,15.668,14.872l.088-.005c8.5-.518,13.615-7.044,13.031-16.625-.693-11.353-8.124-15-14.937-14.615m-6.684,15.935c-.4-6.595,3.563-9.187,7.081-9.4l.042,0c4.314-.241,6.986,2.865,7.332,8.521.181,2.976-.361,5.274-1.613,6.831a6.321,6.321,0,0,1-4.735,2.222c-3.666.205-7.721-1.834-8.107-8.17" transform="translate(-650.99 -341.456)" fill="#fff5de"/>
    <path id="Path_40" data-name="Path 40" d="M976.41,462.161l-.6,0c-.329.023-.72.025-1.148.018-.319-.005-.658-.015-1.008-.026-.38-.012-.771-.024-1.162-.031-2.312-.039-4.034.125-4.917,1.048-1.2,1.257-1.449,7.688-.95,24.582.032,1.088.059,2.005.075,2.676a.921.921,0,0,0,.022.184,2.9,2.9,0,0,0,3.136,2.178c.1,0,.21,0,.394,0,3.341-.341,3.321-3.256,3.305-5.6-.005-.621-.01-1.264.04-1.93a33.369,33.369,0,0,1,.2-3.62.793.793,0,0,1,.661-.63h0c.161.02.325.048.49.075a7.673,7.673,0,0,0,1.152.131h.168c2.568-.038,5.5-.205,7.811-1.707a8.847,8.847,0,0,0,3.863-5.99,10.028,10.028,0,0,0-1.587-7.831c-2.456-3.133-6.258-3.456-9.941-3.518M973.3,472.376a19.2,19.2,0,0,0,.17-2.161c.011-.152.018-.3.024-.448a4.416,4.416,0,0,1,.08-.836.372.372,0,0,1,.07-.019l.5-.008c.6-.011,1.238-.022,1.878-.012,4.336.073,4.913,1.276,4.892,2.565a3.265,3.265,0,0,1-1.045,2.726,3.988,3.988,0,0,1-2.482.6c-.2,0-.39-.013-.631-.031l-.161,0c-.4-.007-.839,0-1.276.006-.407.007-.811.013-1.166.007a3.993,3.993,0,0,1-.752-.055.747.747,0,0,1-.254-.22,16.659,16.659,0,0,1,.158-2.117" transform="translate(-708.715 -341.835)" fill="#fff5de"/>
    <path id="Path_41" data-name="Path 41" d="M1056.261,486.024c-.265-.015-.59-.026-.963-.033-1.169-.021-2.815-.005-4.443.008-1.575.015-3.134.029-4.218.01L1046.3,486c-.19,0-.358,0-.5,0a2,2,0,0,1-.131-.837c-.008-.534-.035-1.123-.063-1.731-.05-1.123-.1-2.284-.05-3.252a2.01,2.01,0,0,1,.023-.208c.063-.005.158-.009.3-.006s.292.01.458.017c.22.009.461.02.744.025h0c.488.005.975-.034,1.446-.07s.9-.071,1.315-.066a.909.909,0,0,0,.126-.007,5.138,5.138,0,0,1,.728-.028c.181,0,.366.011.55.019s.395.016.589.019c.809.015,3.273.059,3.337-2.745.012-.256.051-.527.087-.794.126-.939.362-2.687-1.306-3.081a11.622,11.622,0,0,0-1.8-.142c-.838-.015-1.779.011-2.689.036-.85.023-1.68.047-2.382.035-.268,0-.517-.015-.737-.033l-.13,0a1.134,1.134,0,0,1-.123-.01h0a4.256,4.256,0,0,1,0-1.556,8.762,8.762,0,0,0,.076-1.087,8.973,8.973,0,0,0-.037-.973,5.317,5.317,0,0,1-.015-1h.07c.137,0,.287,0,.452,0,1.011.018,2.49.155,4.054.3,1.679.155,3.417.316,4.714.339.292.006.562,0,.789-.005a2.007,2.007,0,0,0,1.549-.7c.9-1.067.611-2.959.268-5.22-.3-1.311-2.136-1.42-3.908-1.525l-.431-.026c-1.51-.019-3.327.082-5.085.181-1.58.088-3.073.173-4.164.158-.252-.007-.491-.017-.719-.026-.277-.011-.539-.022-.788-.027a4.019,4.019,0,0,0-3.538,1.371,4.5,4.5,0,0,0-.933,3.059c-.009.7.072,1.68.166,2.813.136,1.665.308,3.737.28,5.883-.02,1.532-.142,3.117-.26,4.651-.11,1.439-.215,2.8-.231,4.082.022.6-.019,1.307-.062,2.061a12.336,12.336,0,0,0,.138,3.8.905.905,0,0,0,.048.127c1.146,2.444,3.1,2.682,5.011,2.716.36.007.741,0,1.124,0l.172,0c1,.018,2.191.079,3.434.143,1.372.071,2.791.144,4.088.167l.322,0c.366-.026.9-.02,1.473-.013.632.007,1.285.014,1.85-.019.731-.043,1.643-.492,1.829-2.383l.029-.293c.134-1.282.283-2.734-.438-3.567a1.585,1.585,0,0,0-1.16-.555" transform="translate(-754.198 -341.562)" fill="#fff5de"/>
    <path id="Path_42" data-name="Path 42" d="M589.952,368.044a3.48,3.48,0,0,1,3.373,3.726c-.044,3.653-.937,5.46-2.635,6.541-1.806,1.149-4.264,1.245-7.268,1.236a73.857,73.857,0,0,0-7.6.146c-1.615.127-2.943.576-3.133,1.823-.306,2.889-.016,4.606-.187,7.5-.1,2.443-.591,3.816,2.551,2.6a13.829,13.829,0,0,1,8.273-.781,12.418,12.418,0,0,1,7.213,4.233,21.161,21.161,0,0,1,3.535,7.766,28.025,28.025,0,0,1,.774,8.462,25.436,25.436,0,0,1-1.628,8.315,18.11,18.11,0,0,1-4.58,7.14,15.275,15.275,0,0,1-7.746,3.324,21.468,21.468,0,0,1-8.536.172,16.3,16.3,0,0,1-6.9-2.94,13.563,13.563,0,0,1-4.683-5.646,18.327,18.327,0,0,1-2.06-7.148c-.88-4.887.735-4.881,6.562-4.886,4.922-.487,6.306.173,6.819,1.57.682,1.857-.374,4.8,1.96,7.29,4.242,2.008,6.254-.145,7.257-3.151a23.187,23.187,0,0,0,.783-9.265c-.291-1.712-1.339-6.356-5.448-5.723-2.589.4-5.729,2.238-8.571,2.407-2.875-.035-8.417,1.216-8.9-2.084-.133-2.444-.141-5.688.009-9.191.131-3.033.285-6.237.448-9.218.2-3.644.195-6.961.164-9.221-.023-1.687,1.262-4.766,5.326-4.8,2.023-.017,5.037-.021,8.274-.069,2.755-.04,5.67-.238,8.275-.281,4.627-.075,8.271.153,8.276.153" transform="translate(-450.653 -282.214)" fill="#fff5de"/>
    <path id="Path_43" data-name="Path 43" d="M668.948,402.055a79.853,79.853,0,0,1,.763-8.364,43.825,43.825,0,0,1,1.6-8.256,22.023,22.023,0,0,1,4.226-7.228,13.829,13.829,0,0,1,6.971-4.395,19.518,19.518,0,0,1,8.329-.311,11.107,11.107,0,0,1,7.415,4.019,22.93,22.93,0,0,1,4.559,7.339,44.426,44.426,0,0,1,2.135,8.444,61.116,61.116,0,0,1,1.027,8.669,66.983,66.983,0,0,1-.56,8.714,56.9,56.9,0,0,1-1.841,8.5,39.108,39.108,0,0,1-2.907,8.17,19.458,19.458,0,0,1-5.526,6.566,11.205,11.205,0,0,1-8.038,2.34,14.158,14.158,0,0,1-8.528-1.607,14.761,14.761,0,0,1-5.786-6.459,31.83,31.83,0,0,1-3.193-8.313c-.58-3.035-.368-6.167-.488-8.923-.176-4.026-.147-7.36-.157-8.91m11.712,18.073a5.317,5.317,0,0,0,8,4.672c1.24-.682,2.839-3.729,2.8-6.295-.035-2.608.314-5.835.479-9.3.143-3.01.3-6.2.362-9.3a81.132,81.132,0,0,0-.318-9.3c-.077-.787-.155-4.308-2.107-5.255a6.841,6.841,0,0,0-5.639.026c-.915.43-1.96,2.416-2.193,3.138a40.891,40.891,0,0,0-1.12,8.581c-.208,2.9-.462,5.94-.465,8.666-.006,4.8-.086,8.581-.085,8.682.019,2.35.253,4.611.285,5.688" transform="translate(-520.537 -285.582)" fill="#fff5de"/>
  </g>
</svg>
