<svg id="Group_58" data-name="Group 58" xmlns="http://www.w3.org/2000/svg" xmlns:xlink="http://www.w3.org/1999/xlink" width="784" height="149.003" viewBox="0 0 784 149.003">
  <defs>
    <clipPath id="clip-path">
      <rect id="Rectangle_3580" data-name="Rectangle 3580" width="784" height="149.003" fill="#fef5de"/>
    </clipPath>
  </defs>
  <g id="Group_57" data-name="Group 57" clip-path="url(#clip-path)">
    <path id="Path_74" data-name="Path 74" d="M779.162,26.878C779.162,12.655,770.1.631,757.1.631c-34.282,0-34.282,1.2-68.564,1.2C677.755,1.828,625.226-.043,557.2.48,517.022.788,471.432.186,425.851.544S334.694,2.5,294.516,2.81c-68.03.522-120.556,2.07-131.334,2.07-34.279,0-34.279-1.436-68.56-1.436S60.342.926,26.063.926C13.059.926.925,12.655.925,26.878.925,73.8,2.831,73.8,2.831,120.723c0,14.224,10.228,28.206,23.232,28.206,34.282,0,34.282-5.219,68.564-5.219s34.282,2.157,68.564,2.157c10.776,0,63.293-.512,131.323-1.014,40.174-.3,85.78,2.674,131.361,2.329s91.152-2.652,131.329-2.949c68.029-.5,120.557-.332,131.334-.332,34.279,0,34.279.905,68.559.905,13,0,26.077-9.86,26.077-24.084,0-46.922-4.01-46.922-4.01-93.846M744.829,134.158c-31.208,0-31.208-3.881-62.414-3.881-11.852,0-85.066,3.03-173.052,3.575-55.718.345-117.369-1.518-173.087-1.173-87.988.545-161.213.024-173.064.024-31.21,0-31.21-2.114-62.419-2.114s-31.21,5.506-62.42,5.506c-11.839,0-18.541-12.025-18.541-23.707,0-38.536-5.556-38.536-5.556-77.072,0-11.681,12.258-22.587,24.1-22.587,31.208,0,31.208,5.954,62.415,5.954S132,17.025,163.2,17.025c11.852,0,85.082-.39,173.069-.957,55.719-.358,117.344-2.692,173.062-3.052,87.988-.565,161.222-1.167,173.075-1.167,31.209,0,31.209,4.46,62.419,4.46,11.84,0,21.335,7.325,21.335,19.006,0,38.536,2.444,38.536,2.444,77.072,0,11.681-11.938,21.77-23.778,21.77" transform="translate(0.175 0.074)" fill="#fef5de"/>
    <path id="Path_75" data-name="Path 75" d="M192.332,55.9c-3.836-13.135-13.617-20.774-28.314-22.094a134.93,134.93,0,0,0-16.183-.5c-.845.046-1.657.111-2.48.2a10.337,10.337,0,0,0-4.988,2.335l-.186.142c-2.621,1.85-2.379,4.809-2.075,8.557.081,1,.171,2.128.231,3.412.364,6.123.451,13.18.534,20,.082,6.853.169,13.938.541,20.194.083.932.1,1.93.118,2.93.074,4.106.177,9.727,5.638,10.649a49.759,49.759,0,0,0,9.946.275c1.272-.069,2.577-.113,3.874-.158,1.313-.045,2.618-.092,3.88-.159,1.11-.059,2.185-.137,3.31-.262a33.114,33.114,0,0,0,17.848-9.106c8.737-8.177,12.155-23.151,8.309-36.423M155.606,82.866c0-.506,0-1.035-.024-1.643-.2-2.905-.2-6.6-.209-10.511,0-3.852-.011-7.833-.212-10.988a30.92,30.92,0,0,0-.322-4.191c-.451-3.726-.607-6.1,1.054-7.089a20.05,20.05,0,0,1,2.592-.311c6.09-.33,14.356,2.29,17.6,10.736,2.364,6.347-.169,12.3-2.71,16.181-4.4,6.711-10.947,10.645-13.794,10.8-2.883.156-3.565-.346-3.673-.447-.3-.29-.3-1.482-.3-2.536" transform="translate(26.161 6.301)" fill="#fef5de"/>
    <path id="Path_76" data-name="Path 76" d="M235.563,82.682C234.39,79.4,233.177,76,230.971,69.253c-1.587-4.862-2.576-7.984-3.411-10.613C226.066,53.922,225.078,50.8,222,42l-.37-.826c-2.384-5.326-3.169-6.586-9.163-6.68-4.226-.045-8.134,2.975-9.729,7.521-2.348,6.705-3.565,10.041-4.783,13.378s-2.444,6.7-4.8,13.43c-2.341,6.678-3.675,10.021-4.966,13.253-1.306,3.272-2.658,6.655-5.028,13.412a5.387,5.387,0,0,0,.713,4.909,6.7,6.7,0,0,0,5.379,2.776h0a7.631,7.631,0,0,1,1.878.234,11.456,11.456,0,0,0,2.748.343h.092a6.415,6.415,0,0,0,6.08-4.068,31.819,31.819,0,0,0,1.344-5.739,29.646,29.646,0,0,1,1.121-4.973,2.241,2.241,0,0,1,1.2-.252c4.088.042,6.13.058,8.174.073s4.079.029,8.165.073c.509.008.559.181.606.335.81,2.724,1.3,4.083,1.783,5.4s.929,2.549,1.7,5.143a5.757,5.757,0,0,0,5.329,4.408,14.845,14.845,0,0,0,2.736-.194,10.8,10.8,0,0,1,2.064-.146,6.212,6.212,0,0,0,5.075-2.513,5.59,5.59,0,0,0,.827-5.1c-2.216-6.786-3.437-10.206-4.62-13.514M207.7,73c1.066-3.3,1.738-5.044,2.447-6.882.552-1.432,1.118-2.9,1.876-5.141.767,2.335,1.382,3.836,1.982,5.3a66.968,66.968,0,0,1,2.438,6.79c-2.1-.021-6.676-.045-8.743-.065" transform="translate(34.686 6.543)" fill="#fef5de"/>
    <path id="Path_77" data-name="Path 77" d="M233.664,51.981c1.958,3.849,2.9,5.79,3.836,7.735.949,1.962,1.9,3.925,3.875,7.809a10.252,10.252,0,0,1,1.4,4.153,108.215,108.215,0,0,1-.415,10.963c-.225,2.781-.458,5.658-.429,11.313.015,2.732,2.747,4.635,5.191,4.635l6.836-.05a5.027,5.027,0,0,0,3.313-1.3,4.558,4.558,0,0,0,1.52-3.374c-.03-5.62-.19-8.476-.346-11.24-.152-2.711-.31-5.513-.339-11.028a10.044,10.044,0,0,1,.924-4.357c1.9-3.828,2.936-5.628,4.035-7.537,1.08-1.88,2.2-3.821,4.154-7.763,1.908-3.846,2.962-5.758,3.982-7.608,1.04-1.889,2.116-3.841,4.063-7.767a4.242,4.242,0,0,0-.222-4.2,5.222,5.222,0,0,0-4.522-2.4h0a15.508,15.508,0,0,1-3.036-.259A20.292,20.292,0,0,0,263.6,29.4h-.007c-2.3.01-3.247,2.088-3.753,3.2-2.34,5.079-3.668,7.6-4.953,10.036S252.266,47.6,250,52.471c-2.2-4.667-3.3-7.17-4.361-9.594-1.123-2.561-2.285-5.208-4.716-10.347a4.411,4.411,0,0,0-4.269-2.477,15.388,15.388,0,0,1-3.036-.261,20.175,20.175,0,0,0-3.883-.318h-.006a4.4,4.4,0,0,0-3.745,2.149,5.059,5.059,0,0,0-.187,4.894Z" transform="translate(42.727 5.576)" fill="#fef5de"/>
    <path id="Path_78" data-name="Path 78" d="M295.773,105.634c6.661-1.3,12.445-6.45,15.1-13.436,2.47-6.512,1.662-13.392-2.157-18.391-3.329-4.423-8.842-7.349-13.706-9.93-2.2-1.169-4.282-2.271-6.007-3.418-2.748-1.846-3.634-2.576-3.619-4.135a4.044,4.044,0,0,1,1.091-2.936,3.606,3.606,0,0,1,2.658-.911,6.42,6.42,0,0,1,2.608.686,23.492,23.492,0,0,1,2.337,1.657c2.81,2.134,4.783,3.537,6.516,3.583a3.019,3.019,0,0,0,1.142-.184,14.181,14.181,0,0,0,6.155-4.951c1.1-1.7.293-3.706-.187-4.9l-.133-.337c-2.815-7.3-11.357-10.77-18.573-10.964a21.185,21.185,0,0,0-6.362.736A19.951,19.951,0,0,0,269.3,64.106c2.9,7.6,10.567,11.181,16.732,14.058,3.8,1.771,7.389,3.449,8.743,5.521.6,1.56,1.027,3.715-.17,5.444a6.562,6.562,0,0,1-5.608,2.367,8.74,8.74,0,0,1-6.807-3.461,1.755,1.755,0,0,0-.149-.177,17.374,17.374,0,0,1-1.945-2.715c-1.263-2.018-2.695-4.3-5.459-4.631-.061-.008-.22-.014-.236-.015-3.548-.01-10.623,3.767-10.779,8.356a2.062,2.062,0,0,0,.027.41c1.829,11.037,13.408,17.1,23.9,17.381a26.451,26.451,0,0,0,8.224-1.011" transform="translate(50.004 7.029)" fill="#fef5de"/>
    <path id="Path_79" data-name="Path 79" d="M347.684,49.218c-13.521.07-22.916,9.872-22.843,23.836.07,13.417,9.278,22.43,22.911,22.43h.167c6.918-.036,12.74-2.279,16.84-6.487,3.969-4.075,6.049-9.669,6.015-16.177-.07-13.9-9.506-23.6-23.089-23.6m-8.323,23.763c-.029-5.708,2.842-11.5,8.383-11.53h.043c5.508,0,8.419,5.756,8.448,11.442a12.025,12.025,0,0,1-2.228,7.5,7.526,7.526,0,0,1-6.2,2.859c-6.191,0-8.418-5.533-8.443-10.272" transform="translate(61.616 9.336)" fill="#fef5de"/>
    <path id="Path_80" data-name="Path 80" d="M397.352,38.12a1.924,1.924,0,0,0-.337-.412c-1.411-1.28-3.4-1.456-5.333-1.456l-1.7.015c-.285,0-.559,0-.905-.025l-.44,0c-9.194,0-14.936,4.382-16.151,12.229a16.4,16.4,0,0,0-.275,2.546,16.048,16.048,0,0,1-.168,1.85c-.406.074-1.012.117-1.35.14-.395.027-.753.056-1.025.1a3.372,3.372,0,0,0-2.924,2.07,17.964,17.964,0,0,0-.153,7.587c.582,2.363,3.3,2.37,5.1,2.373.175,0,.381,0,.582,0,.23,4.522.233,12.517.237,19.063,0,5.112,0,9.526.109,11.173a1.856,1.856,0,0,0,.09.462,2.6,2.6,0,0,0,2.671,1.9c.137,0,.759-.027.937-.027.119,0,.532.02.578.02.777,0,1.751.061,2.71.119,1.011.063,2.009.12,2.78.12.062,0,.276,0,.336-.008l.5-.039a3.389,3.389,0,0,0,3.217-1.75,1.848,1.848,0,0,0,.182-.7c.084-1.572-.034-7.566-.171-14.508-.117-5.846-.236-11.868-.239-15.607.515-.037,1.35-.048,2.051-.056,2.494-.031,4.081-.081,5.063-.5a4.177,4.177,0,0,0,2.3-2.98,1.7,1.7,0,0,0,.021-.19,21.07,21.07,0,0,0-.429-4.489l-.132-.8c-.023-.145-.03-.308-.04-.472-.051-.753-.206-3.049-2.356-3.222a11.186,11.186,0,0,0-1.269-.062c-.6,0-1.271.03-1.956.059-.651.027-1.313.058-1.92.058a7.65,7.65,0,0,1-1.2-.073,8.62,8.62,0,0,1,.07-1.419,11.593,11.593,0,0,0,.089-1.679c-.021-.465,1.256-1.438,2.61-1.551a1.344,1.344,0,0,1,.219-.015,6.975,6.975,0,0,1,1.783.387,8.069,8.069,0,0,0,2.32.462,3.183,3.183,0,0,0,2.37-.974,9,9,0,0,0,1.7-3.609l.142-.647c.365-1.612.817-3.62-.288-5.449" transform="translate(69.472 6.874)" fill="#fef5de"/>
    <path id="Path_81" data-name="Path 81" d="M468.39,89.329c-.03-4.064-.07-9.118.063-14.483.1-3.956.156-8.093.214-12.174.032-2.439.067-4.856.109-7.2.059-3.433.239-6.812.395-9.792.206-3.9.382-7.264.269-9.847a2.112,2.112,0,0,0-.071-.457c-.77-2.9-3.781-4.765-7.857-4.861a12.2,12.2,0,0,0-4.072.576c-5.894,2.317-5.957,8.825-6.007,14.053-.038,3.825-.074,7.444-1.9,9.118a26.748,26.748,0,0,1-8.85.937c-1.2-.029-2.391-.086-3.545-.143-1.121-.054-2.208-.1-3.237-.128l-.661-.012c-2.381-.232-2.885-.425-3.157-1.181-.579-1.677-.6-4.625-.617-7.477-.042-6.823-.1-16.168-8.7-16.371a14.921,14.921,0,0,0-4.019.526,5.1,5.1,0,0,0-.513.173c-3.587,1.535-3.353,4.715-3.13,7.79a35.853,35.853,0,0,1,.113,4.854c-.061,3.266-.32,6.585-.6,10.1-.3,3.87-.615,7.871-.7,12.22-.088,6.076-.351,12.068-.583,17.357-.218,4.938-.4,9.2-.359,11.987a8.057,8.057,0,0,0,1.9,4.966,8.418,8.418,0,0,0,5.437,1.881c3.437.081,7.947-1.466,9.375-6.218a52.856,52.856,0,0,0,.914-11.828c.007-2.153.013-4.186.163-6.273-.007-2.213.28-3.576.873-4.169.508-.509,1.562-.755,3.254-.753,1.886-.027,3.985-.262,6.21-.509a59.675,59.675,0,0,1,7.582-.535,15.6,15.6,0,0,1,1.925.151c2.95.548,2.66,6.053,1.975,13.188-.55,5.713-1.065,11.106,1.141,14.308a8.9,8.9,0,0,0,7.175,3.468,10.113,10.113,0,0,0,7.79-3.092,6.872,6.872,0,0,0,1.711-5.552c0-1.355-.009-2.9-.024-4.591" transform="translate(77.956 5.667)" fill="#fef5de"/>
    <path id="Path_82" data-name="Path 82" d="M499.906,31.694c-23.855,1.459-33.426,20.247-32.33,38.221,1.543,25.309,19.48,35.673,36.573,34.716l.206-.011c19.842-1.211,31.782-16.444,30.419-38.81-1.619-26.5-18.964-35.005-34.868-34.116m-15.6,37.2c-.941-15.394,8.318-21.445,16.531-21.946l.1-.006c10.069-.563,16.309,6.687,17.115,19.891.424,6.945-.843,12.311-3.764,15.945-2.5,3.106-6.279,4.9-11.053,5.187-8.559.478-18.024-4.28-18.924-19.072" transform="translate(88.675 6)" fill="#fef5de"/>
    <path id="Path_83" data-name="Path 83" d="M556.67,32.178l-1.409-.01c-.768.054-1.682.057-2.682.04-.746-.013-1.537-.036-2.352-.062-.886-.026-1.8-.054-2.712-.069-5.4-.092-9.416.29-11.478,2.445-2.8,2.934-3.383,17.948-2.218,57.382.075,2.541.138,4.681.174,6.246a2.372,2.372,0,0,0,.052.429c1.133,4.979,5.79,5.057,7.321,5.084.244,0,.489,0,.921-.012,7.8-.795,7.751-7.6,7.715-13.069-.012-1.449-.023-2.95.093-4.507a77.837,77.837,0,0,1,.462-8.45,1.855,1.855,0,0,1,1.543-1.472h0c.375.048.758.113,1.143.175a17.677,17.677,0,0,0,2.689.306h.393c5.995-.087,12.845-.478,18.234-3.983,4.563-2.778,7.85-7.876,9.018-13.982,1.276-6.675-.1-13.5-3.7-18.279-5.733-7.312-14.609-8.066-23.207-8.212m-7.253,23.845a44.486,44.486,0,0,0,.4-5.042c.025-.355.042-.705.056-1.046a10.381,10.381,0,0,1,.188-1.952.713.713,0,0,1,.163-.045l1.158-.019c1.4-.026,2.892-.052,4.385-.027,10.122.171,11.47,2.979,11.419,5.989-.051,3.079-.849,5.16-2.44,6.364a9.312,9.312,0,0,1-5.795,1.409c-.456-.007-.911-.03-1.473-.071l-.376-.008c-.927-.017-1.958,0-2.979.015-.951.015-1.894.031-2.721.017a9.45,9.45,0,0,1-1.756-.127,1.725,1.725,0,0,1-.595-.514,39.015,39.015,0,0,1,.369-4.941" transform="translate(101.148 6.082)" fill="#fef5de"/>
    <path id="Path_84" data-name="Path 84" d="M627.069,88.578c-.617-.035-1.376-.061-2.249-.076-2.73-.049-6.571-.013-10.372.019-3.677.034-7.316.068-9.845.023-.275,0-.538-.012-.783-.017-.444-.008-.836-.011-1.168,0a4.637,4.637,0,0,1-.306-1.956c-.019-1.246-.081-2.621-.145-4.04-.119-2.621-.243-5.331-.118-7.591a4.488,4.488,0,0,1,.055-.487,6.967,6.967,0,0,1,.707-.014c.326,0,.682.023,1.071.039.512.023,1.077.048,1.735.059h0c1.136.012,2.275-.08,3.375-.164,1.074-.086,2.092-.167,3.069-.155a2.44,2.44,0,0,0,.3-.015,11.845,11.845,0,0,1,1.7-.067c.423.007.854.026,1.284.044.46.019.922.038,1.375.046,1.888.033,7.64.137,7.792-6.408.027-.6.117-1.231.2-1.854.3-2.193.846-6.273-3.049-7.194a27.175,27.175,0,0,0-4.2-.332c-1.955-.035-4.152.026-6.277.084-1.983.055-3.924.111-5.559.081-.626-.012-1.208-.035-1.721-.077-.023,0-.28-.007-.3-.007a2.841,2.841,0,0,1-.288-.023h-.01c-.334-.5-.107-2.613,0-3.632a22.3,22.3,0,0,0,.09-4.806,12.393,12.393,0,0,1-.036-2.331c.044,0,.1,0,.163,0,.32-.01.671-.012,1.053,0,2.36.043,5.813.363,9.466.7,3.92.363,7.976.736,11,.791.682.012,1.312.008,1.843-.013a4.682,4.682,0,0,0,3.615-1.641c2.088-2.49,1.426-6.907.625-12.186-.708-3.061-4.986-3.314-9.122-3.558l-1.005-.061c-3.526-.044-7.767.192-11.871.422-3.688.207-7.173.4-9.72.37-.589-.018-1.147-.04-1.68-.062-.647-.027-1.257-.052-1.837-.063-2.68-.048-5.751.157-8.259,3.2a10.513,10.513,0,0,0-2.177,7.14c-.021,1.638.167,3.924.385,6.568.319,3.888.719,8.724.654,13.734-.045,3.576-.331,7.277-.608,10.856-.257,3.358-.5,6.533-.539,9.529.051,1.39-.044,3.052-.145,4.812-.187,3.217-.376,6.543.321,8.882a2.08,2.08,0,0,0,.114.3c2.672,5.7,7.244,6.26,11.7,6.34.84.015,1.729.011,2.624,0l.4.007c2.327.042,5.116.184,8.016.333,3.2.165,6.515.337,9.544.39l.752,0c.854-.061,2.108-.046,3.437-.031,1.475.017,3,.033,4.319-.044,1.707-.1,3.836-1.149,4.27-5.563l.069-.684c.311-2.992.661-6.383-1.024-8.327a3.7,3.7,0,0,0-2.708-1.3" transform="translate(110.976 6.023)" fill="#fef5de"/>
    <path id="Path_85" data-name="Path 85" d="M75.067,29.274a4.248,4.248,0,0,1,4.119,4.551c-.054,4.461-1.144,6.667-3.217,7.986-2.206,1.4-5.207,1.52-8.875,1.51a90.1,90.1,0,0,0-9.285.178c-1.972.155-3.593.7-3.826,2.227-.374,3.527-.02,5.624-.228,9.152-.123,2.984-.722,4.66,3.115,3.18a16.888,16.888,0,0,1,10.1-.954,15.164,15.164,0,0,1,8.807,5.169A25.847,25.847,0,0,1,80.1,71.756a34.244,34.244,0,0,1,.946,10.334,31.065,31.065,0,0,1-1.989,10.154,22.124,22.124,0,0,1-5.591,8.718A18.651,18.651,0,0,1,64,105.021a26.213,26.213,0,0,1-10.424.211,19.912,19.912,0,0,1-8.421-3.59,16.557,16.557,0,0,1-5.718-6.894,22.392,22.392,0,0,1-2.515-8.728c-1.074-5.967.9-5.96,8.013-5.967,6.01-.595,7.7.212,8.328,1.917.833,2.268-.458,5.868,2.392,8.9,5.181,2.452,7.637-.177,8.861-3.847a28.3,28.3,0,0,0,.957-11.314c-.355-2.09-1.635-7.761-6.653-6.988-3.161.487-7,2.733-10.466,2.94-3.51-.043-10.278,1.484-10.865-2.546-.162-2.984-.173-6.945.012-11.223.159-3.7.347-7.615.546-11.256.243-4.449.238-8.5.2-11.26-.027-2.061,1.542-5.82,6.5-5.862,2.471-.02,6.151-.026,10.1-.083,3.366-.05,6.924-.291,10.105-.344,5.65-.092,10.1.187,10.106.187" transform="translate(6.952 5.514)" fill="#fef5de"/>
    <path id="Path_86" data-name="Path 86" d="M78.3,66.309A97.215,97.215,0,0,1,79.228,56.1a53.463,53.463,0,0,1,1.951-10.08,26.883,26.883,0,0,1,5.16-8.826,16.9,16.9,0,0,1,8.513-5.365,23.818,23.818,0,0,1,10.171-.381c3.617.276,6.519,2.138,9.055,4.907a27.989,27.989,0,0,1,5.567,8.962,54.265,54.265,0,0,1,2.608,10.311,74.721,74.721,0,0,1,1.254,10.586,81.92,81.92,0,0,1-.684,10.641,69.53,69.53,0,0,1-2.249,10.384,47.814,47.814,0,0,1-3.549,9.977,23.769,23.769,0,0,1-6.748,8.017,13.677,13.677,0,0,1-9.815,2.858,17.286,17.286,0,0,1-10.413-1.962,18.025,18.025,0,0,1-7.066-7.886,38.948,38.948,0,0,1-3.9-10.152c-.708-3.706-.449-7.531-.6-10.9-.214-4.917-.178-8.987-.192-10.881m14.3,22.07a6.493,6.493,0,0,0,9.77,5.706c1.514-.833,3.466-4.554,3.423-7.687-.043-3.185.384-7.126.584-11.354.175-3.675.366-7.569.443-11.36a98.854,98.854,0,0,0-.389-11.358c-.094-.961-.188-5.261-2.573-6.417a8.355,8.355,0,0,0-6.886.032c-1.117.526-2.394,2.95-2.678,3.832-.855,2.651-1.08,6.454-1.368,10.478-.253,3.539-.564,7.253-.569,10.582-.007,5.86-.1,10.478-.1,10.6.024,2.87.309,5.631.347,6.945" transform="translate(14.851 5.894)" fill="#fef5de"/>
  </g>
</svg>
