<svg xmlns="http://www.w3.org/2000/svg" xmlns:xlink="http://www.w3.org/1999/xlink" width="426.251" height="300.217" viewBox="0 0 426.251 300.217">
  <defs>
    <clipPath id="clip-path">
      <rect id="Rectangle_24" data-name="Rectangle 24" width="386.416" height="190.113" fill="none"/>
    </clipPath>
  </defs>
  <g id="Group_38" data-name="Group 38" transform="matrix(0.951, 0.309, -0.309, 0.951, 58.748, 0)">
    <g id="Group_37" data-name="Group 37" clip-path="url(#clip-path)">
      <path id="Path_52" data-name="Path 52" d="M105.741,70.009,97.973,114.74c-2.422,13.948-1.077,37.4,7.469,42.791,2.545,1.6,10.528,1.783,13.263.139,36.06-21.682,41.523-56.6,56.756-89.038L192.784,31.74c4.565-9.72,12.287-18.3,22.326-24.955,5.906-3.918,18.684-7.832,26.133-6.531,17.9,3.126,27.879,17.939,29.062,32.824,1.907,23.987-13.873,61.085-14.164,103.874-.055,8.225,2.613,16.1,8.429,22.048,5.056,5.167,13.415,5.508,19.646,1.414,24.832-16.314,41.759-44.99,53.928-70.245l20.6-42.754c1.766-3.667,5.817-7.753,9.382-8.618,4.346-1.055,11.49-.57,13.942,1.731,7.333,6.878,3.9,13.744.554,20.594-11.3,23.152-21.664,45.657-34.538,68.142-15.692,27.4-49.829,69.114-84.828,59.414-41.566-11.52-41.667-54.915-33.929-89.78l11.33-51.045c1.59-7.168,1.413-14.712-2.753-21.111-10.692,4.338-16.944,11.817-20.76,20.568L188.569,112.83c-8.014,18.378-17.086,35.842-31.741,50.939-11.131,11.466-27.44,21.556-45.244,21.218-26.618-.5-42.268-20.045-43.948-40.967-1.756-21.859,1.578-42.182,6.752-63.584,3.422-14.15,5.3-27.668,1.851-43.327C66.631,41.045,61.367,47.749,57.1,55.121L31.365,99.543c-2.233,3.853-7.481,8.253-11.824,10.3-4.969,2.346-12.359,1.061-15.729-1.96C1.089,105.445-1.42,98.792.938,94.777L31.394,42.913c12.465-21.227,40.418-44.4,61.139-27.36,6.281,5.166,11.376,11.214,12.817,18.918a98.683,98.683,0,0,1,.39,35.538" transform="translate(0 0)" fill="#acd8ba"/>
    </g>
  </g>
</svg>
