<svg id="Group_51" data-name="Group 51" xmlns="http://www.w3.org/2000/svg" xmlns:xlink="http://www.w3.org/1999/xlink" width="282.162" height="142.011" viewBox="0 0 282.162 142.011">
  <defs>
    <clipPath id="clip-path">
      <rect id="Rectangle_28" data-name="Rectangle 28" width="282.162" height="142.011" fill="none"/>
    </clipPath>
  </defs>
  <g id="Group_50" data-name="Group 50" clip-path="url(#clip-path)">
    <path id="Path_56" data-name="Path 56" d="M84.919,136.486c44.539,13.206,92.228,3.968,110.208-41.106,4.352-10.91,3.4-22.405,4.773-33.826L201.772,46c1.025-8.5,5.217-19.034,11.033-19.284,14.588-.629,30.056,50.717,34.97,68.826l5.74,26.774c1.649,7.7,5.781,16.151,14.993,16.614,5.816.292,12.15-6.154,13.162-11.8,1.376-7.688-.4-14.637-2.016-21.984-3.835-17.47-7.953-34.413-15.243-50.7L258.575,41.4a184.366,184.366,0,0,0-11.9-21.514C241.5,11.524,229.9,3.429,219.9.781a38.409,38.409,0,0,0-14.34-.207c-14.793,3.027-23.928,14.559-29.192,27.91-4.9,12.426-5.511,25.282-5.508,38.863l-1.357,12.2c-2.116,19.017-28.874,19.941-48.786,10.41-8.144-3.9-16.469-6.621-24.074-11.345C75.279,65.353,55.363,51.2,37.8,33.343c-4.3-4.375-7.551-8.887-13.759-11.039C16.69,19.757,6.714,20.875,1.919,28.026-.869,32.185-.063,39.543.887,44.582,3.582,58.894,9.043,72.34,17.735,83.7,21.3,88.366,24.5,93.507,28.773,97.27c5.6,4.934,10.558,9.676,14.582,15.867l21.963,15.606,8.128,3.471Z" transform="translate(0 0)" fill="#acd8ba"/>
  </g>
</svg>
