<svg xmlns="http://www.w3.org/2000/svg" xmlns:xlink="http://www.w3.org/1999/xlink" width="538" height="66.71" viewBox="0 0 538 66.71">
  <defs>
    <clipPath id="clip-path">
      <rect id="Rectangle_3579" data-name="Rectangle 3579" width="538" height="66.71" fill="none"/>
    </clipPath>
  </defs>
  <g id="Group_56" data-name="Group 56" transform="translate(0 0)">
    <g id="Group_55" data-name="Group 55" transform="translate(0 0)" clip-path="url(#clip-path)">
      <path id="Path_63" data-name="Path 63" d="M33.9,0C22.376.665,17.809,1.67,6.368,2.652,4.6,2.856,2.2,2.885.914,4.179A4.9,4.9,0,0,0,0,7.563C1.544,30.3,1.724,35.989,3.361,58.76c.2,2.748.281,6.736,3.358,7.114,3.32.059,8.411,1.414,10.573-1.987.958-1.845.527-4.544.366-6.742-.4-4.5-.745-6.827-1.191-12.1-.563-3.841,1.05-5.077,4.368-5.206,3.535-.395,5.382-.758,8.908-1.135,3.621-.161,6.84-1.712,6.088-6.276-.473-2.622-.264-6.293-2.781-7.7-1.483-.735-3.327-.5-4.93-.364-3.537.347-5.016.551-8.6.9-2.682.493-4.839-.582-4.633-3.878-.406-3.769.8-5.332,4.34-5.389,5.627-.549,7.333-.809,13.208-1.377,3.76-.152,5.793-1.5,5.559-5.946C38.2,5.191,38.457-.01,33.968,0Z" transform="translate(0 0)" fill="#d6001c"/>
      <path id="Path_64" data-name="Path 64" d="M87.021,7.549C83.458,7.1,76.978,4.784,77,10.98c-.188,12.654-.163,19.322-.48,32.046.126,4.561-2.018,10.26-6.554,10.524-3.5.36-6.967-.331-8.7-4.853-1.12-3.137-.87-6.324-.8-9.679.225-9.866.974-14.025,1.288-25.4.988-8.548-4.321-7.92-10.24-7.452-3.077.474-2.634,4.612-2.765,7.2-.273,13.555-1.307,20.378-.945,32.712.684,27.592,40.117,28.281,41.378.4.594-12.462.251-19.12.536-33,.05-2.377.1-5.507-2.634-5.919Z" transform="translate(-6.641 -0.37)" fill="#d6001c"/>
      <path id="Path_65" data-name="Path 65" d="M141.546,5.229c-4.047-.318-10.24,0-9.608,6.042.109,6.281.782,9.567,1.078,16.606.147,1.539-.129,5.252-2.214,3.369-4.875-7.181-7.331-12.562-11.166-18.9-1.958-4.186-4.349-7.414-8.962-6.362-3.158-.09-7.144.63-7.081,5.144.464,21.278.812,29.761,1.738,51.1.572,5.085,6,3.827,9.3,3.552,3.3-.3,3.671-4.058,3.471-7-.115-6.672.142-8.452.023-15.231-.216-4.65,1.437-4.062,3.176-.608,5.482,8.892,7.716,14.389,13.247,21.818,2.995,1.782,6.653.118,9.82-.462,2.831-.994,2.291-4.981,2.267-7.691-.586-20.469-.39-24.568-1.042-45.313.022-2.932-1.108-5.86-3.992-6.06Z" transform="translate(-14.417 -0.321)" fill="#d6001c"/>
      <path id="Path_66" data-name="Path 66" d="M178.443,5.34c-3.968-.091-6.78.138-10.593.193-2.112.037-4.881-.154-6.077,2.117-.866,1.658-.749,4.089-.8,6.053-.185,16.845-.127,21.465-.255,35.84.018,15.8-2.048,16.2,13.271,15.951,36.47,5.651,41.424-59.671,4.52-60.152Zm-3.211,46.667c-1.622-.572-1.581-2.754-1.807-4.314-1.233-11.323-.526-13.6.31-25.083.113-1.428.152-3.542,1.695-3.823,8.716-.2,14.692,5.069,15.216,14.04,1,11.4-4.576,19.908-15.367,19.2Z" transform="translate(-22.355 -0.332)" fill="#d6001c"/>
      <path id="Path_67" data-name="Path 67" d="M285.422,2.346c-11.446-.471-16.72-.507-28.108-.747-1.77,0-3.894.06-5.112,1.418-1.282,1.347-1.329,3.935-1.361,5.96-.23,22.106-.591,25.794-.833,48.053-.274,4.707.505,8.5,5.5,8.621,2.24.024,4.944.693,6.883-.778,2.2-2.178,1.429-6.163,1.744-9.028.19-4.079.5-6.083.642-11.018-.123-3.717,1.307-5.021,4.637-4.733,3.413.042,5.311.084,8.776.117,5.475.333,7.649-2.725,6.008-8.4-.383-1.875-.374-4.309-2.072-5.4-1.306-.8-3.023-.75-4.5-.788-3.429-.038-4.889-.043-8.387-.085-2.813.175-4.457-1.116-4.375-4.345-.51-4.148,1.836-5.246,5.242-5.037,4.532.018,6.422-.051,10.083-.061,4.055-.017,8.955.822,8.787-5.063.022-3.271.67-8.266-3.487-8.678Z" transform="translate(-34.786 -0.1)" fill="#d6001c"/>
      <path id="Path_68" data-name="Path 68" d="M329.163,40.783c-1.319-3.347,4.275-4.774,5.869-10.494C338.7,19.228,332.664,6.5,321.066,6.039c-6.617-.2-12.2.29-19.039.541-4.438.05-4.6,3.83-4.3,7.8.806,21.3,1.111,25.653,1.991,47.417.02,3.083,1.877,4.609,4.475,4.416,4.852.02,9.212.643,8.5-6.384-.173-5.8-.813-9.361-.767-15.226.365-4.66,3.561-2.219,4.867.422C321.663,52.8,322.963,57.632,328,64.11c2.523,2.265,5.905.912,8.867.888,5.374-.1,5.194-3.47,2.384-7.43-3.885-6.6-6.43-9.784-10.067-16.726ZM318.835,27.919c-1.646.132-3.077.176-4.715.17-2.241-.014-2.533-1.819-2.684-3.812-.491-3.3.326-4.534,3.5-4.451,2.144.1,4.605-.4,6.578.719,1.66,1.059,1.822,3.338,1.236,5.077-.574,1.538-2.317,2.139-3.86,2.291Z" transform="translate(-41.421 -0.374)" fill="#d6001c"/>
      <path id="Path_69" data-name="Path 69" d="M382.935,48.279c-5.615-.354-9.478.737-15.211.78-4.423.377-3.85-3.674-3.68-7.085-.2-3.381,1.775-4.226,4.529-4.04,3.561-.021,5.055.081,8.7.053a5.911,5.911,0,0,0,3.234-.683c2.153-1.913,1-6.377,1.305-9.178.217-3.705-1.89-4.809-4.956-4.462-2.969.118-4.5.287-7,.421-1.748-.015-4.2.619-5.34-1.041-.839-1.958-.784-5.7,1.7-6.1,4.213-.395,7.361-.065,11.054-.166,3.053.032,7.68.265,8.356-3.983.229-2.558.018-6.521-1.58-8.446-1.047-1.006-2.945-1.05-4.419-1.064-9.765.13-12.616-.547-22.381-.477-6.254-.393-6.883,2.876-6.594,8.908.332,20.455-.192,24.785.309,45.74.144,2.539,1.049,4.134,3.393,4.49,10.662.326,15.284.145,25.8.175,2.6.063,6.153-.2,6.387-3.7.147-3.473.672-9.559-3.554-10.134Z" transform="translate(-48.792 -0.173)" fill="#d6001c"/>
      <path id="Path_70" data-name="Path 70" d="M431.239,52.628c-5.78-.395-9.436-.8-15.118-1.133-3.9.228-3.435-3.77-3.779-6.75-.519-3.62,2.143-4.346,4.873-4.021,12.218.186,12.816,3.973,13.329-9.529.314-2.975-2.405-3.51-4.537-3.358-3.026-.052-4.557-.064-7.105-.1-2.8.076-5.97.1-6.015-3.906-.141-1.19-.294-2.679.622-3.52.952-.871,2.493-.821,3.712-.846,4.7.011,6.292-.218,10.834-.218,1.98-.1,4.71.374,5.929-1.685,1.025-3.034,2.164-7.418-.049-10.127-1.067-1.193-2.943-1.416-4.521-1.47-9.794-.226-12.594-.406-22.456-.625-6.138-.528-7.706,2.466-7.466,8.781-.268,20.383-.2,24.8-.409,45.729.068,2.588.914,4.254,3.277,4.716,10.62.688,15.135,1.142,25.734,1.654,2.816.289,6.246-.352,6.7-3.911.5-3.521.957-9.342-3.491-9.668Z" transform="translate(-55.539 -0.329)" fill="#d6001c"/>
      <path id="Path_71" data-name="Path 71" d="M464.882,5.947c-4.023.074-6.883-.068-10.733-.062-2.144.023-4.93-.067-6.17,2.175-.881,1.62-.7,4.013-.7,5.941.251,16.27.393,20.213.641,33.827.052,2.848.105,6.14.168,10.042.022,2.656.11,6.154,2.86,7.08,3.632.824,7.446.229,10.934.438,36.534,4.741,40.468-60.339,3.069-59.441ZM462.793,51.9c-1.7-.132-2.052-2.256-2.3-3.807-1.913-11.384-1.075-13.807-.5-25.321.091-1.463.038-3.7,1.606-4.047,8.954-.453,15.012,4.084,15.859,13.638,1.234,11.629-3.66,19.493-14.606,19.544Z" transform="translate(-62.244 -0.367)" fill="#d6001c"/>
      <path id="Path_72" data-name="Path 72" d="M529.141.262A25.051,25.051,0,0,0,504.469,19c-13.11,53.536,60.2,56.177,48.989,1.328C550.832,7.568,540.236.033,529.186.262Zm-.019,47.181c-7.858.111-11.828-6.98-12.112-15.206-.319-6.757,1-14.318,6.424-17.678a11.852,11.852,0,0,1,9.651-.888c4.834,1.561,7.829,6.632,8.661,11.85,1.724,9.928-1.7,21.92-12.57,21.922Z" transform="translate(-69.986 -0.016)" fill="#d6001c"/>
      <path id="Path_73" data-name="Path 73" d="M616.979,10.99c-.1-3.406-2.961-3.876-5.414-4.071-2.317-.2-5.162-1.164-7.2.476-2.113,2.268-2.8,6-4.122,8.751-2.02,4.946-3.214,7.268-5.718,13.744-.533,1.208-1.6,4.77-3.037,2.657-3.566-8.994-4.952-15.355-7.933-23.508-1.014-3.531-4.511-4.191-7.5-3.679-2.152.28-4.865-.138-6.605,1.618-1.217,1.261-1.279,3.847-1.329,5.783-.387,20.769-.329,27.118-.566,48.034.056,4.664,4.795,3.953,7.745,4.578,3.777.7,4.6-3.033,4.6-6.324.534-2.678.224-10.434,2.2-11.382,3.035-.056,3.179,8.166,4.963,10.458,1.877,3,6.807,2.933,9.3.957,1.944-2.19,2.242-5.212,3.213-7.97.366-1.456,1.96-4.159,3.035-2.048,1,4.051.332,8.041.65,12.291-.221,5.958,6.411,4.525,10.021,4.249,3.164-.338,3.186-4.331,3.19-7.128.345-20.712.312-26.606.5-47.417Z" transform="translate(-78.986 -0.325)" fill="#d6001c"/>
    </g>
  </g>
</svg>
