<?xml version="1.0" encoding="UTF-8"?><svg id="Layer_1" xmlns="http://www.w3.org/2000/svg" viewBox="0 0 982.05 71.16"><defs><style>.cls-1{fill:#f4f4f4;}</style></defs><path class="cls-1" d="M39.38,0C25.99.71,20.69,1.78,7.4,2.83c-2.05.22-4.84.25-6.33,1.63C.26,5.23,0,6.51,0,8.07c1.79,24.26,2,30.32,3.9,54.61.24,2.93.33,7.19,3.9,7.59,3.86.06,9.77,1.51,12.28-2.12,1.11-1.97.61-4.85.43-7.19-.46-4.8-.86-7.28-1.38-12.91-.65-4.1,1.22-5.42,5.07-5.55,4.11-.42,6.25-.81,10.35-1.21,4.21-.17,7.95-1.83,7.07-6.69-.55-2.8-.31-6.71-3.23-8.22-1.72-.78-3.86-.53-5.73-.39-4.11.37-5.83.59-9.99.96-3.12.53-5.62-.62-5.38-4.14-.47-4.02.93-5.69,5.04-5.75,6.54-.59,8.52-.86,15.34-1.47,4.37-.16,6.73-1.6,6.46-6.34C44.38,5.54,44.67-.01,39.46,0h-.08Z"/><path class="cls-1" d="M93.37,7.66c-4.14-.48-11.67-2.95-11.64,3.66-.22,13.5-.19,20.61-.56,34.18.15,4.87-2.34,10.94-7.61,11.23-4.06.38-8.09-.35-10.11-5.18-1.3-3.35-1.01-6.75-.94-10.32.26-10.52,1.13-14.96,1.5-27.1,1.15-9.12-5.02-8.45-11.89-7.95-3.57.51-3.06,4.92-3.21,7.68-.32,14.46-1.52,21.74-1.1,34.89.79,29.43,46.6,30.17,48.07.43.69-13.29.29-20.39.62-35.2.06-2.54.12-5.87-3.06-6.31h-.06Z"/><path class="cls-1" d="M147.68,5.23c-4.7-.34-11.9,0-11.16,6.45.13,6.7.91,10.2,1.25,17.71.17,1.64-.15,5.6-2.57,3.59-5.66-7.66-8.52-13.4-12.97-20.16-2.27-4.46-5.05-7.91-10.41-6.79-3.67-.1-8.3.67-8.23,5.49.54,22.7.94,31.74,2.02,54.5.66,5.42,6.97,4.08,10.8,3.79,3.83-.32,4.26-4.33,4.03-7.46-.13-7.12.17-9.02.03-16.25-.25-4.96,1.67-4.33,3.69-.65,6.37,9.48,8.96,15.35,15.39,23.27,3.48,1.9,7.73.13,11.41-.49,3.29-1.06,2.66-5.31,2.63-8.2-.68-21.83-.45-26.21-1.21-48.33.02-3.13-1.29-6.25-4.64-6.46h-.06Z"/><path class="cls-1" d="M181.32,5.34c-4.61-.1-7.88.15-12.3.21-2.45.04-5.67-.16-7.06,2.26-1.01,1.77-.87,4.36-.93,6.46-.22,17.97-.15,22.9-.3,38.23.02,16.85-2.38,17.28,15.42,17.01,42.37,6.03,48.12-63.65,5.25-64.16h-.08ZM177.59,55.12c-1.88-.61-1.84-2.94-2.1-4.6-1.43-12.08-.61-14.51.36-26.76.13-1.52.18-3.78,1.97-4.08,10.13-.21,17.07,5.41,17.68,14.98,1.16,12.16-5.32,21.24-17.85,20.47l-.05-.02Z"/><path class="cls-1" d="M648.23,2.41c-13.3-.5-19.42-.54-32.65-.8-2.06,0-4.52.06-5.94,1.51-1.49,1.44-1.54,4.2-1.58,6.36-.26,23.58-.68,27.51-.96,51.26-.32,5.02.59,9.06,6.39,9.2,2.6.03,5.74.74,8-.83,2.56-2.32,1.66-6.57,2.03-9.63.22-4.35.58-6.49.74-11.75-.14-3.96,1.52-5.36,5.39-5.05,3.97.04,6.17.09,10.2.12,6.36.35,8.89-2.91,6.98-8.96-.44-2-.43-4.6-2.41-5.76-1.52-.85-3.51-.8-5.23-.84-3.98-.04-5.68-.05-9.74-.09-3.27.19-5.18-1.19-5.08-4.64-.59-4.42,2.13-5.6,6.09-5.37,5.26.02,7.46-.05,11.71-.07,4.71-.02,10.4.88,10.21-5.4.03-3.49.78-8.82-4.05-9.26h-.08Z"/><path class="cls-1" d="M691.34,43.11c-1.53-3.57,4.97-5.09,6.82-11.19,4.26-11.8-2.75-25.38-16.23-25.86-7.69-.21-14.17.31-22.12.58-5.16.05-5.34,4.09-5,8.32.94,22.72,1.29,27.36,2.32,50.58.02,3.29,2.18,4.92,5.2,4.71,5.64.02,10.7.69,9.87-6.81-.2-6.18-.94-9.98-.89-16.24.42-4.97,4.14-2.37,5.65.45,5.66,8.3,7.17,13.45,13.02,20.36,2.93,2.42,6.86.97,10.3.95,6.24-.1,6.03-3.7,2.77-7.92-4.51-7.04-7.47-10.44-11.7-17.84l-.02-.06ZM679.34,29.39c-1.91.14-3.58.19-5.48.18-2.6-.02-2.94-1.94-3.12-4.07-.57-3.52.38-4.84,4.07-4.75,2.49.1,5.35-.43,7.64.77,1.93,1.13,2.12,3.56,1.44,5.42-.67,1.64-2.69,2.28-4.48,2.44h-.07Z"/><path class="cls-1" d="M745.24,51.32c-6.52-.38-11.01.79-17.67.83-5.14.4-4.47-3.92-4.28-7.56-.23-3.61,2.06-4.51,5.26-4.31,4.14-.02,5.87.08,10.11.05,1.24-.02,2.7-.06,3.76-.73,2.5-2.04,1.16-6.8,1.52-9.79.25-3.95-2.2-5.13-5.76-4.76-3.45.13-5.22.31-8.13.45-2.03-.02-4.87.66-6.2-1.11-.98-2.09-.91-6.09,1.97-6.51,4.89-.42,8.55-.07,12.84-.18,3.55.03,8.92.28,9.71-4.25.27-2.73.02-6.96-1.84-9.01-1.22-1.07-3.42-1.12-5.13-1.13-11.34.14-14.66-.58-26-.51-7.26-.42-8,3.07-7.66,9.5.39,21.82-.22,26.44.36,48.79.17,2.71,1.22,4.41,3.94,4.79,12.39.35,17.75.15,29.97.18,3.03.07,7.15-.21,7.42-3.95.17-3.7.78-10.2-4.13-10.81h-.07Z"/><path class="cls-1" d="M793.51,55.78c-6.71-.42-10.96-.85-17.56-1.21-4.53.24-3.99-4.02-4.39-7.2-.6-3.86,2.49-4.64,5.66-4.29,14.19.2,14.89,4.24,15.48-10.17.36-3.17-2.79-3.74-5.27-3.58-3.52-.06-5.29-.07-8.25-.11-3.25.08-6.94.1-6.99-4.16-.16-1.27-.34-2.86.72-3.75,1.11-.93,2.9-.88,4.31-.9,5.46.01,7.31-.23,12.59-.23,2.3-.11,5.47.4,6.89-1.8,1.19-3.24,2.51-7.91-.06-10.8-1.24-1.27-3.42-1.51-5.25-1.57-11.38-.24-14.63-.43-26.09-.67-7.13-.56-8.95,2.63-8.67,9.37-.31,21.74-.24,26.45-.47,48.78.08,2.76,1.06,4.54,3.81,5.03,12.34.73,17.58,1.22,29.89,1.76,3.27.31,7.26-.38,7.78-4.17.58-3.76,1.11-9.96-4.06-10.31h-.07Z"/><path class="cls-1" d="M824.8,5.95c-4.67.08-8-.07-12.47-.06-2.49.02-5.73-.07-7.17,2.32-1.02,1.73-.82,4.28-.81,6.34.29,17.35.46,21.56.75,36.08.06,3.04.12,6.55.2,10.71.03,2.83.13,6.56,3.32,7.55,4.22.88,8.65.24,12.7.47,42.44,5.05,47.01-64.36,3.56-63.4h-.08ZM822.38,54.97c-1.98-.14-2.38-2.41-2.68-4.06-2.22-12.14-1.25-14.73-.59-27.01.11-1.56.04-3.95,1.87-4.32,10.4-.48,17.44,4.35,18.42,14.55,1.44,12.4-4.25,20.79-16.97,20.85h-.06Z"/><path class="cls-1" d="M890.46.26c-12.26-.15-24.86,6.91-28.66,19.99-15.23,57.11,69.94,59.92,56.91,1.41-3.05-13.61-15.36-21.65-28.2-21.41h-.05ZM890.44,50.58c-9.13.12-13.74-7.44-14.07-16.22-.37-7.21,1.16-15.27,7.46-18.86,3.15-1.82,7.75-2.06,11.21-.95,5.61,1.67,9.1,7.07,10.06,12.64,2,10.59-1.97,23.38-14.6,23.38h-.06Z"/><path class="cls-1" d="M982.04,11.36c-.12-3.63-3.44-4.13-6.29-4.34-2.69-.22-6-1.24-8.36.51-2.45,2.42-3.26,6.4-4.79,9.33-2.35,5.28-3.73,7.75-6.64,14.66-.62,1.29-1.85,5.09-3.53,2.83-4.14-9.59-5.75-16.38-9.22-25.07-1.18-3.77-5.24-4.47-8.71-3.92-2.5.3-5.65-.15-7.67,1.73-1.41,1.35-1.49,4.1-1.54,6.17-.45,22.15-.38,28.93-.66,51.24.07,4.97,5.57,4.21,9,4.88,4.39.75,5.34-3.24,5.35-6.75.62-2.86.26-11.13,2.56-12.14,3.53-.06,3.69,8.71,5.76,11.16,2.18,3.2,7.91,3.13,10.81,1.02,2.26-2.34,2.6-5.56,3.73-8.5.42-1.55,2.28-4.44,3.53-2.18,1.16,4.32.39,8.58.76,13.11-.26,6.36,7.45,4.83,11.64,4.53,3.68-.36,3.7-4.62,3.71-7.6.4-22.09.36-28.38.58-50.58v-.07Z"/><path class="cls-1" d="M260.56,58.38c-.85-1.34-1.73-2.72-3.36-5.49-1.67-2.83-2.5-4.23-3.34-5.65-.78-1.31-1.57-2.64-3.05-5.14,6.6-2.79,10.49-9.09,10.67-17.27.13-5.67-1.85-10.59-5.73-14.22-3.77-3.53-8.56-5.39-14.24-5.51-5.03-.11-7.6-.12-10.07-.13-2.46,0-5-.01-9.99-.12-2.3-.05-4.14,1.59-4.19,3.75-.08,3.6,0,5.43.07,7.2.07,1.78.14,3.47.07,6.93l-.31,14.11c-.08,3.45-.24,5.12-.41,6.89-.17,1.77-.34,3.6-.42,7.2s-.03,5.4,0,7.16c.04,1.79.09,3.48,0,6.96-.05,2.23,1.59,4.01,3.74,4.06,1.79.04,2.66.12,3.59.2.95.08,1.93.17,3.86.21,2.2.05,4.25-1.92,4.3-4.13.12-5.6.08-8.45.03-11.2-.04-2.67-.09-5.43.03-10.78.93.02,1.45-.08,1.87-.16.31-.06.52-.1.95-.09.06.01.16.06.22.11,1.79,3.02,2.68,4.54,3.57,6.06.9,1.53,1.8,3.07,3.61,6.13,1.8,3.04,2.68,4.61,3.52,6.13.86,1.54,1.75,3.14,3.58,6.23.68,1.15,1.76,1.75,3.22,1.78,2,.04,3,.09,4,.13,1.02.04,2.04.08,4.08.13,1.48.03,2.84-.71,3.57-1.95.71-1.21.7-2.66-.03-3.89-1.67-2.84-2.57-4.25-3.44-5.62ZM246.32,24.49c-.09,4.13-2.91,4.94-5.26,4.89-2.2-.05-3.26-.12-4.39-.19-1.02-.07-2.07-.13-3.9-.17-.19,0-.38,0-.58-.01-.02,0-.05-.03-.08-.05.05-2.34.1-3.54.14-4.74.05-1.19.09-2.38.14-4.68,2.24.05,3.39.02,4.5-.01,1.13-.03,2.19-.06,4.38-.01,3.42.08,5.11,1.75,5.04,4.98Z"/><path class="cls-1" d="M319.29,57.31c-.56-1.77-1.11-3.54-2.16-7.1-1.06-3.6-1.6-5.39-2.13-7.18-.53-1.77-1.06-3.56-2.11-7.11-1.06-3.58-1.6-5.36-2.15-7.14-.54-1.78-1.09-3.55-2.14-7.12-1.04-3.53-1.47-5.27-1.93-7.1-.45-1.8-.91-3.66-1.98-7.28-.47-1.58-1.93-2.64-3.72-2.71-2.09-.08-3.1-.16-4.17-.24-1.06-.08-2.16-.16-4.32-.25-1.68-.07-3.23.98-3.85,2.6l-5.33,13.92c-1.34,3.5-1.98,5.3-2.61,7.03-.61,1.71-1.25,3.49-2.57,6.94-1.32,3.45-2.04,5.18-2.74,6.86-.71,1.7-1.45,3.47-2.79,6.97-1.32,3.45-2.04,5.19-2.74,6.87-.71,1.7-1.44,3.47-2.78,6.97-.46,1.19-.27,2.6.5,3.77.77,1.17,2,1.9,3.28,1.95,2.05.08,3.07.09,4.1.1.99.01,1.99.02,3.97.1,1.68.07,3.27-1.08,3.87-2.78,1-2.83,1.54-4.25,2.06-5.63.53-1.4,1.08-2.85,2.1-5.73.03-.07.06-.14.09-.19,3.77.15,5.75.29,7.67.42,2.01.14,4.09.28,8.17.44.75,2.81,1.07,4.2,1.41,5.68.34,1.47.69,2.98,1.48,5.94.43,1.62,1.86,2.68,3.72,2.75,2.02.08,3.03.11,4.05.15,1,.03,2.01.07,4.02.14,1.34.05,2.55-.48,3.32-1.47.74-.95.96-2.19.6-3.4-1.06-3.59-1.62-5.37-2.18-7.16ZM295.85,28.57c.66,2.56,1.01,4,1.34,5.4.38,1.59.77,3.23,1.61,6.44-1.62-.07-2.47-.16-3.36-.25-.88-.09-1.79-.18-3.42-.26,1.02-2.95,1.53-4.48,2.03-6.01.46-1.4.92-2.81,1.79-5.33ZM302.91,54.71s0-.01-.02-.03h.03s-.01.03-.01.03Z"/><path class="cls-1" d="M342.04,51.02c-.04-3.55-.1-5.36-.16-7.1-.06-1.72-.12-3.51-.15-7.01s-.02-5.29,0-7.01c.02-1.75.03-3.55,0-7.1s-.18-5.42-.31-7.19c-.13-1.78-.26-3.46-.3-6.92-.02-2.28-1.54-3.85-3.68-3.83-1.76.02-2.61-.06-3.52-.14-.97-.08-1.97-.17-3.94-.15-2.11.02-3.74,1.9-3.71,4.28.04,3.45-.07,5.13-.18,6.9s-.23,3.61-.19,7.22.22,5.46.4,7.24c.18,1.76.34,3.43.38,6.87s-.08,5.11-.2,6.89c-.12,1.78-.25,3.61-.21,7.23s.2,5.44.35,7.21c.15,1.77.29,3.45.33,6.9.02,2.13,1.43,4.32,3.76,4.29,2-.02,3.01-.16,3.99-.3.89-.12,1.73-.24,3.46-.26,2.32-.03,4.19-1.78,4.17-3.91-.04-3.55-.09-5.32-.14-7.09-.05-1.75-.1-3.51-.13-7.02Z"/><path class="cls-1" d="M386.9,33.15c-3.62-2.64-7.98-4.34-11.82-5.83l-.44-.17c-5.58-2.17-7.83-3.98-8.03-6.46-.19-2.29,1.56-3.26,3.25-3.39,2.73-.22,4.52.58,6.15,2.76.69.92,1.52,1.45,2.47,1.58.64.09,1.62.03,2.68-.78h0c.97-.74,1.6-1.24,2.13-1.66.97-.77,1.56-1.24,3.43-2.48l.11-.08c1.86-1.41,2.4-3.75,1.25-5.43-4.17-6.08-11.06-9.06-19.39-8.38-5.56.45-10.03,2.48-12.92,5.87-2.94,3.44-4.26,8.18-3.81,13.69.47,5.82,2.52,10.24,6.07,13.16,3,2.47,6.8,3.78,10.14,4.94.84.29,1.66.57,2.45.87,5.34,2,8.08,3.47,8.29,6,.32,3.87-1.22,5.65-5.14,5.97-2.51.2-6.23-.38-9.6-7.8-.45-1-1.3-1.7-2.4-1.98-1.25-.32-2.7-.02-3.77.78-1.36,1.02-2.05,1.51-2.75,1.99-.72.51-1.45,1.01-2.86,2.07-1.37,1.03-1.81,2.67-1.17,4.4,1.75,4.79,4.93,8.76,9.18,11.49,4.83,3.09,9.52,4.41,14.33,4.01,5.91-.48,11.01-2.96,14.76-7.18,3.85-4.33,5.64-9.74,5.15-15.66-.52-6.31-4.4-9.91-7.72-12.34ZM379.86,19.18h0s0,0,0,0Z"/><path class="cls-1" d="M440.47,57.92c.08-2.31-1.42-4.04-3.56-4.11-2.89-.1-4.33-.16-5.78-.22-1.45-.06-2.9-.12-5.81-.22s-4.48-.05-5.95,0c-1.43.05-2.77.1-5.48,0-.05-.05-.1-.12-.13-.18.11-3.11.24-4.63.39-6.23.14-1.61.29-3.27.4-6.54,0-.02,0-.04.01-.07,4.03.14,6.11.22,8.18.29,2.15.08,4.29.16,8.58.31,2.47.09,4.39-1.42,4.46-3.51.06-1.73.03-2.6,0-3.45-.03-.81-.06-1.57,0-3.15.07-2.15-1.73-4.03-3.95-4.1-4.32-.15-6.52-.16-8.65-.17-2.07,0-4.21-.02-8.37-.16-.04-.03-.07-.06-.07-.02.08-2.26.09-3.39.09-4.52,0-1.04.01-2.08.08-4.05.02,0,.04,0,.05,0,5.58.19,8.38.27,11.17.36,2.79.08,5.57.16,11.15.35,2.22.08,4.09-1.65,4.17-3.85.06-1.73.03-2.61,0-3.46-.03-.81-.06-1.58,0-3.15.08-2.16-1.4-3.67-3.66-3.75-4.17-.14-6.28-.26-8.33-.37-2.07-.11-4.2-.22-8.41-.37s-6.25-.3-8.28-.46c-2.08-.16-4.22-.32-8.45-.47-2.22-.08-4.31,1.81-4.38,3.96-.13,3.62-.03,5.47.07,7.25.1,1.77.19,3.44.07,6.88s-.2,5.27-.28,7.03c-.08,1.77-.16,3.54-.29,7.08s-.31,5.11-.51,6.87c-.2,1.77-.41,3.6-.54,7.21s-.08,5.42-.04,7.18c.04,1.78.08,3.47-.04,6.93-.08,2.3,1.54,4.16,3.69,4.24,4.3.15,6.46.2,8.61.25,2.14.05,4.28.1,8.56.25s6.42.25,8.56.35c2.15.1,4.3.2,8.61.35,2.21.08,4.22-1.78,4.3-3.97.06-1.79-.04-2.75-.12-3.59-.08-.78-.15-1.51-.1-3.01Z"/><path class="cls-1" d="M501.96,12.48c.11-.62.2-1.2.52-2.38.53-1.96-.58-3.98-2.58-4.7-2.44-.88-4.79-1.3-7.18-1.3-5.21,0-9.56,1.67-12.6,4.82-3.12,3.24-4.77,7.61-4.77,12.66,0,.01,0,.03,0,.04-.33-.13-.74-.22-1.23-.22-2.35,0-3.99,2.25-3.99,4.27,0,1.33-.01,2-.02,2.66-.01.68-.02,1.37-.02,2.73,0,2.12,1.77,3.79,4.03,3.79.34,0,.51.02.68.03.21.02.42.04.75.05,0,3.74.06,5.67.11,7.53.05,1.86.11,3.78.11,7.56v15.25c0,2.15,1.62,3.72,3.85,3.72,1.59,0,2.37.1,3.18.22.92.13,1.88.25,3.75.25,2.18,0,4.1-1.96,4.1-4.19,0-3.85-.08-5.81-.15-7.71-.07-1.85-.15-3.77-.15-7.54s.1-5.58.21-7.51c.1-1.82.2-3.71.21-7.3,1.04,0,1.63-.01,2.23-.02.67,0,1.33-.02,2.66-.02,2.12,0,3.72-1.77,3.72-4.12,0-1.37-.01-2.05-.03-2.74-.01-.66-.02-1.33-.02-2.66,0-2.32-1.54-4.01-3.67-4.01-1.34,0-2.01,0-2.69,0-.67,0-1.33,0-2.69,0v-.85c0-2.37.9-3.39,3.06-3.39,1.08.04,2.02,0,2.81.25,1.19.37,2.5.27,3.5-.28.85-.46,1.45-1.22,1.69-2.13.37-1.37.49-2.08.61-2.77Z"/><path class="cls-1" d="M525.38,21.06c-7.4,0-13.53,2.29-17.72,6.61-4.17,4.31-6.47,10.63-6.47,17.8,0,6.68,2.39,12.68,6.93,17.36,4.7,4.85,10.67,7.41,17.27,7.41s12.79-2.52,17.4-7.28c4.45-4.6,6.91-10.81,6.91-17.49s-2.49-12.73-7-17.39c-4.45-4.59-10.43-7.02-17.31-7.02ZM525.38,34.53c6.19,0,9.01,5.67,9.01,10.94,0,5.55-3.09,11.18-9.01,11.18s-8.87-5.79-8.87-11.18,2.78-10.94,8.87-10.94Z"/><path class="cls-1" d="M584.09,21.56c-1.35-.3-2.65-.32-3.87-.32-3.99,0-7.58,1.21-10.44,3.53l-.03-1.22h-.72c-.74-.96-2-1.57-3.48-1.57-1.56,0-2.28-.12-3.12-.26-.89-.15-1.91-.32-3.82-.32-2.18,0-4.17,2.04-4.17,4.27,0,3.33.05,5.02.09,6.66.05,1.61.09,3.27.09,6.54s.1,5.07.19,6.72c.09,1.67.18,3.24.18,6.48s-.1,4.8-.21,6.46c-.11,1.66-.22,3.37-.22,6.74,0,2.22,1.89,4.16,4.05,4.16,1.88,0,2.83-.13,3.76-.26.82-.11,1.59-.22,3.18-.22,2.27,0,3.92-1.55,3.92-3.68,0-3.34.06-4.97.13-6.68.06-1.68.13-3.42.13-6.84,0-5.53.47-9.07,1.52-11.47,1.98-4.52,5.32-5.47,7.77-5.47.33,0,.69.13,1.14.3.25.09.5.18.75.26,1.03.31,2.23.14,3.27-.49,1.1-.66,1.87-1.68,2.09-2.81.32-1.58.4-2.39.48-3.18.07-.72.14-1.4.42-2.78.42-2.11-.9-4.06-3.08-4.54Z"/></svg>