<svg id="Group_73" data-name="Group 73" xmlns="http://www.w3.org/2000/svg" xmlns:xlink="http://www.w3.org/1999/xlink" width="335.448" height="100.518" viewBox="0 0 335.448 100.518">
  <defs>
    <clipPath id="clip-path">
      <rect id="Rectangle_5" data-name="Rectangle 5" width="335.448" height="100.518" fill="#fbfbfb"/>
    </clipPath>
  </defs>
  <g id="Group_3" data-name="Group 3" clip-path="url(#clip-path)">
    <path id="Path_17" data-name="Path 17" d="M802.036,233.193v13.923h-2.742V233.193h-6.118v33.752h6.118V252.6h2.742v14.346h6.117V233.193Z" transform="translate(-690.309 -199.762)" fill="#fbfbfb"/>
    <path id="Path_18" data-name="Path 18" d="M804.985,248.933c0-11.6,3.162-16.031,8.648-16.031s8.649,4.432,8.649,16.031v2.532c0,11.6-3.161,16.031-8.649,16.031s-8.648-4.427-8.648-16.031Zm6.964,11.138c0,1.411.673,2.15,1.685,2.15s1.689-.757,1.689-2.15V240.116c0-1.413-.673-2.151-1.689-2.151s-1.685.757-1.685,2.151Z" transform="translate(-684.953 -199.894)" fill="#fbfbfb"/>
    <path id="Path_19" data-name="Path 19" d="M824.638,233.194c5.147,0,9.58,3.378,9.58,10.55v.842c0,7.176-4.433,10.55-9.5,10.55v11.811h-6.329V233.194Zm.084,16.878h.423c1.685,0,2.744-.97,2.744-3.374V241.64c0-2.4-1.06-3.374-2.744-3.374h-.4Z" transform="translate(-678.872 -199.761)" fill="#fbfbfb"/>
    <path id="Path_20" data-name="Path 20" d="M841.743,233.2v5.487h-5.069v8.436h4.433V252.6h-4.433v8.859h5.069v5.487h-11.4V233.2Z" transform="translate(-673.451 -199.76)" fill="#fbfbfb"/>
    <path id="Path_21" data-name="Path 21" d="M844.9,233.125h11.391v5.481h-5.063v8.442h4.235v5.483h-4.235v14.346H844.9Z" transform="translate(-666.85 -199.793)" fill="#fbfbfb"/>
    <path id="Path_22" data-name="Path 22" d="M853.227,248.862c0-11.6,3.167-16.031,8.649-16.031s8.653,4.427,8.653,16.031v2.532c0,11.6-3.166,16.031-8.653,16.031s-8.649-4.427-8.649-16.031ZM860.191,260c0,1.411.677,2.15,1.689,2.15s1.685-.757,1.685-2.15V240.045c0-1.411-.673-2.151-1.685-2.151s-1.689.757-1.689,2.151Z" transform="translate(-663.075 -199.926)" fill="#fbfbfb"/>
    <path id="Path_23" data-name="Path 23" d="M872.746,233.122c5.317,0,9.368,3.714,9.368,10.255,0,4.234-1.266,6.587-3.585,8.855l3.167,14.22v.424h-6.116l-2.406-12.827h-.612l.3,12.827h-6.352V233.122Zm.084,16.47h.2c1.478,0,2.744-1.144,2.744-3.378V241.56c0-2.236-1.266-3.374-2.744-3.374h-.21Z" transform="translate(-657.052 -199.794)" fill="#fbfbfb"/>
    <path id="Path_24" data-name="Path 24" d="M894.6,233.125v26.788c0,4.234-1.882,7.17-6.329,7.17a30.3,30.3,0,0,1-5.063-.423l.423-5.275h3.119c1.224,0,1.733-.545,1.733-1.727V238.606h-4.856v-5.481Z" transform="translate(-649.479 -199.793)" fill="#fbfbfb"/>
    <path id="Path_25" data-name="Path 25" d="M908.072,233.125v25.316c0,5.481-2.951,8.855-7.807,8.855s-7.805-3.374-7.805-8.855V233.125h6.329v26.957c0,1.413.471,2.151,1.477,2.151s1.478-.763,1.478-2.151V233.125Z" transform="translate(-645.281 -199.793)" fill="#fbfbfb"/>
    <path id="Path_26" data-name="Path 26" d="M910.067,255.409a5,5,0,0,1,.254,1.882v3.119c0,1.308.587,2.151,1.557,2.151s1.605-.843,1.605-2.32c0-2.7-1.769-5.176-3.628-7.637l-1.223-1.6c-2.871-3.765-4.052-6.244-4.052-9.957,0-4.852,2.913-8.23,7.68-8.23,4.855,0,7.528,3.378,7.528,8.733a8.253,8.253,0,0,0,.255,2.448v.423h-5.694a5.764,5.764,0,0,1-.254-1.882v-2.823c0-1.35-.631-2.023-1.514-2.023s-1.646.677-1.646,2.352c0,2.49,1.3,4.263,3.161,6.625l1.266,1.6c2.913,3.67,4.475,6.587,4.475,10.715,0,5.147-2.913,8.436-7.529,8.436-5.148,0-7.765-3.331-7.765-9.237a7.506,7.506,0,0,0-.253-2.352v-.424Z" transform="translate(-639.916 -199.932)" fill="#fbfbfb"/>
    <path id="Path_27" data-name="Path 27" d="M930.362,233.125v5.481h-4.236v28.267h-6.314V238.607h-4.236v-5.481Z" transform="translate(-634.798 -199.793)" fill="#fbfbfb"/>
    <rect id="Rectangle_4" data-name="Rectangle 4" width="6.329" height="33.752" transform="translate(297.404 33.328)" fill="#fbfbfb"/>
    <path id="Path_28" data-name="Path 28" d="M941.36,232.831c5.063,0,7.763,4.009,7.763,10.352a10.442,10.442,0,0,0,.212,2.32v.423h-6.324a6.949,6.949,0,0,1-.211-1.882v-4.206c0-1.18-.5-1.943-1.52-1.943s-1.643.763-1.643,2.156V260c0,1.411.631,2.156,1.643,2.156s1.52-.763,1.52-1.943v-4.174a6.955,6.955,0,0,1,.211-1.882h6.347v.424a9.535,9.535,0,0,0-.211,2.531c0,6.329-2.7,10.352-7.765,10.352-5.481,0-8.69-4.432-8.69-16.031v-2.57c0-11.6,3.209-16.031,8.69-16.031" transform="translate(-627.035 -199.926)" fill="#fbfbfb"/>
    <path id="Path_29" data-name="Path 29" d="M956.743,233.125v5.481h-5.062v8.442h4.431v5.483h-4.431v8.859h5.062v5.483h-11.4V233.125Z" transform="translate(-621.296 -199.793)" fill="#fbfbfb"/>
    <path id="Path_30" data-name="Path 30" d="M811.7,237.63a.072.072,0,0,0-.076-.032c-1.954.23-4.236.47-4.236.47a10.767,10.767,0,0,0-8.47-.5,11.463,11.463,0,0,0-6.164,5.111l-1.025-.349.723-6a10.6,10.6,0,0,0-4.789-9.952l-25.457-16.186c-.541,1.222-3.765,16.511,10.7,23.64,7.19,3.534,8.823,4.324,9.129,4.64a1.263,1.263,0,0,1,.507.785s-13.4-4.442-17.047-5.706c-12.032-4.145-33.108-11.345-43.088-14.668,0,0,3.477,26.911,35.395,37.973,10.088,3.576,18.281,6.465,18.281,6.465a4.562,4.562,0,0,1,2.6,1.933,4.24,4.24,0,0,1,.07,3.93c-4.705,8.9-21.039,39.85-21.928,41.526A17.969,17.969,0,0,0,763.554,306c2.2-2.531,3.9-4.611,7.834-9.185,4.808-5.59,9.976-11.58,9.976-11.58l1.316,13.1a11.479,11.479,0,0,0,3.073-6.743c.406-3.426,1.615-13.307,1.615-13.307s8.737-10.244,16.153-18.87c7.167-8.291,5.285-16.794,5.077-17.495,0,0,2.48-3.34,3.1-4.192a.083.083,0,0,0,0-.1m-8.127,5.586a1.788,1.788,0,1,1,.437-2.494,1.788,1.788,0,0,1-.437,2.494l0,0" transform="translate(-722.405 -210.193)" fill="#fbfbfb"/>
  </g>
</svg>
