<svg xmlns="http://www.w3.org/2000/svg" viewBox="0 0 1079.095 1044.472" preserveAspectRatio="none">
  <path id="Path_95" data-name="Path 95" d="M375.178,1211.237c36.879,0,36.879-2.662,73.757-2.662s36.882,4.839,73.763,4.839,36.881-1.965,73.761-1.965,36.88.9,73.761.9,36.88.024,73.762.024,36.881-2.984,73.761-2.984,36.882,3.09,73.762,3.09,36.884-3.414,73.764-3.414,36.88,2.273,73.761,2.273,36.884-.832,73.764-.832-772.948.037-736.069.037,36.88-.61,73.759-.61,36.881-1.384,73.761-1.384,36.882,5.007,73.763,5.007,36.884-3.8,73.766-3.8,36.882.255,73.763.255,36.884.385,73.765.385,36.884.313,73.766.313,36.88,1.848,73.762,1.848,36.882-3.3,73.766-3.3,36.884,1.227,73.768,1.227,36.885,1.837,73.771,1.837,36.886.852,73.771.852c25.987,0,49.774-12.419,66.8-29.637s26.684-41.268,26.684-67.541c0-38.6,2.172-38.6,2.172-77.207s-1.355-38.606-1.355-77.211.162-38.606.162-77.212-1.05-38.6-1.05-77.209-.929-38.606-.929-77.212-.457-38.606-.457-77.211,2.456-38.6,2.456-77.209,1.292-38.606,1.292-77.212-.427-38.608-.427-77.214.444-38.61.444-77.218-.057-38.61-.057-77.218c0-26.275-12.537-49.685-29.567-66.9s-40.184-28.317-66.171-28.317c-36.878,0-36.878,1.411-73.759,1.411s-36.881-2.911-73.763-2.911-36.88-.854-73.761-.854-36.881,2.127-73.761,2.127S929.981,170,893.1,170s-36.882,2.2-73.763,2.2-36.881.9-73.76.9-36.882-3.5-73.765-3.5-36.882,1.462-73.762,1.462-36.882,1.424-73.763,1.424-36.878.384-73.757.384-36.877.377-73.758.377,772.944-2.589,736.064-2.589-36.88,3.261-73.764,3.261-36.882-2.831-73.766-2.831-36.88-1.207-73.76-1.207-36.886,1.564-73.768,1.564-36.882,1.467-73.766,1.467-36.88-2.533-73.761-2.533-36.884,1.413-73.766,1.413-36.884,1.12-73.769,1.12-36.885-3.729-73.771-3.729-36.885,1.489-73.769,1.489a95,95,0,0,0-67.2,28.059c-17.03,17.218-25.431,41.669-25.431,67.943,0,38.6.181,38.6.181,77.2S278.6,382.5,278.6,421.1s2.442,38.606,2.442,77.212-.667,38.6-.667,77.209,1.6,38.606,1.6,77.212-.1,38.606-.1,77.212-1.752,38.6-1.752,77.207.2,38.606.2,77.212.709,38.608.709,77.214,1.035,38.609,1.035,77.218-2.37,38.61-2.37,77.22c0,26.272,11.677,50.28,28.707,67.5a93.682,93.682,0,0,0,66.762,27.722" transform="translate(1357.699 1213.555) rotate(180)" fill="#fef5de"/>
</svg>
