<svg id="Group_35" data-name="Group 35" xmlns="http://www.w3.org/2000/svg" xmlns:xlink="http://www.w3.org/1999/xlink" width="296.851" height="300.411" viewBox="0 0 296.851 300.411">
  <defs>
    <clipPath id="clip-path">
      <rect id="Rectangle_23" data-name="Rectangle 23" width="296.851" height="300.411" fill="none"/>
    </clipPath>
  </defs>
  <g id="Group_34" data-name="Group 34" clip-path="url(#clip-path)">
    <path id="Path_51" data-name="Path 51" d="M147.485,189.594,132.76,213.883l-21.733,38.322L94.1,282.266c-3.4,6.03-10.753,4.939-15.7,1.883-6.727-4.153-10.225-11.032-6.065-18.56l33.411-60.455,17.83-31.27L83,185.208,10.877,206.479c-5.227.361-9.329-8-10.269-11.8-1.948-7.874.794-12.935,8.1-15.109l65.934-19.617,37.442-12.461-38.321-21.22L34.9,105.412c-7.033-3.775-15.075-6.465-20.279-13.18-3.048-3.934-.59-10.3,1.427-13.517,9.092-14.5,26.833-.008,45.834,10.224L126.8,123.9,113.764,74.846,102.676,37.31,95.64,13.254C94.111,8.025,97.941,3.195,103,1.4,106.591.117,111.652-.58,114.386.62c3.33,1.461,6.1,6.018,7.2,9.66l9.969,33.233c7.258,24.2,14.2,47.668,23.529,72.4l53.925-95.83c2.6-4.628,11.412-2.8,14.785-1.081,3.632,1.851,10.772,8.377,8.181,13.609-10.977,22.161-23.03,42.94-35.119,64.4l-17.428,30.939,20.6-4.686L282.992,97.68c5.933-1.83,10.957,5.533,12.924,9.719,1.749,3.724,1.455,13.061-4.48,14.963L228.3,142.593,187.16,155.505l49.261,27.414,39.818,20.965c7.425,3.91,9.4,11.291,5.461,18.479-3.542,6.46-10.667,9.81-17.63,6.088l-49.9-26.679-41.223-21.343c9.843,34.732,19.7,67.539,31.126,101.02,2.756,8.08-1.292,15.053-8.093,17.774-6.546,2.618-15.436,1.18-17.841-7.024l-8.782-29.953Z" fill="#ea0000"/>
  </g>
</svg>
