<svg xmlns="http://www.w3.org/2000/svg" xmlns:xlink="http://www.w3.org/1999/xlink" viewBox="0 0 573.664 1118.385" preserveAspectRatio="none">
  <defs>
    <clipPath id="clip-path">
      <rect id="Rectangle_3582" data-name="Rectangle 3582" width="573.664" height="1118.385" transform="translate(0 -0.005)" fill="none"/>
    </clipPath>
  </defs>
  <g id="Group_76" data-name="Group 76" transform="translate(0 0.005)">
    <g id="Group_75" data-name="Group 75" clip-path="url(#clip-path)">
      <path id="Path_94" data-name="Path 94" d="M1.287,57.174c0,21.836,1.462,21.836,1.462,43.671S.091,122.682.091,144.518,1.17,166.354,1.17,188.19.676,210.026.676,231.862.663,253.7.663,275.535,2.3,297.371,2.3,319.207s-1.7,21.837-1.7,43.673S2.48,384.717,2.48,406.554,1.232,428.39,1.232,450.226s.457,21.837.457,43.673-.034,21.835-.034,43.67.335,21.836.335,43.671.76,21.836.76,43.672S0,646.748,0,668.585s2.086,21.838,2.086,43.675-.14,21.837-.14,43.673-.211,21.838-.211,43.675-.172,21.838-.172,43.675S.548,865.119.548,886.956s1.815,21.837,1.815,43.675-.674,21.838-.674,43.676S.68,996.146.68,1017.985s-.468,21.839-.468,43.678c0,15.386,6.821,29.47,16.278,39.553a50.378,50.378,0,0,0,37.1,15.8c21.2,0,21.2,1.286,42.4,1.286s21.2-.8,42.407-.8,21.2.1,42.408.1,21.2-.623,42.406-.623,21.2-.549,42.408-.549,21.2-.272,42.407-.272,21.2,1.454,42.406,1.454,21.2.766,42.408.766,21.2-.253,42.409-.253,21.206.262,42.411.262,21.206-.033,42.411-.033c14.431,0,27.289-7.423,36.746-17.506a57.094,57.094,0,0,0,15.553-39.178c0-21.835-.775-21.835-.775-43.671s1.6-21.837,1.6-43.673.469-21.836.469-43.672-1.168-21.836-1.168-43.672.664-21.836.664-43.672-1.209-21.837-1.209-43.673-.5-21.836-.5-43.672,1.92-21.837,1.92-43.674-.8-21.837-.8-43.673-.782-21.837-.782-43.673-.211-21.835-.211-43.67-.207-21.835-.207-43.671,1.436-21.835,1.436-43.671-1.791-21.837-1.791-43.674,1.555-21.837,1.555-43.675.663-21.836.663-43.673-.859-21.838-.859-43.675-.806-21.837-.806-43.675,1.391-21.836,1.391-43.672-.776-21.838-.776-43.675-.615-21.838-.615-43.677,2.048-21.839,2.048-43.678-.818-21.839-.818-43.678a58.506,58.506,0,0,0-15.411-39.786C547.932,7.3,534.5,2.331,520.072,2.331c-21.2,0-21.2.107-42.4.107S456.464,0,435.261,0s-21.2,1.446-42.408,1.446-21.2-.395-42.406-.395-21.2.95-42.408.95-21.2-.061-42.408-.061S244.429.9,223.226.9s-21.2.121-42.408.121-21.2.42-42.409.42S117.2,2.053,96,2.053,74.792.65,53.586.65c-14.43,0-27.616,6.914-37.073,17A57.706,57.706,0,0,0,1.287,57.174" fill="#fe8f53"/>
    </g>
  </g>
</svg>
