<svg id="Group_42" data-name="Group 42" xmlns="http://www.w3.org/2000/svg" xmlns:xlink="http://www.w3.org/1999/xlink" width="150.668" height="152.475" viewBox="0 0 150.668 152.475">
  <defs>
    <clipPath id="clip-path">
      <rect id="Rectangle_25" data-name="Rectangle 25" width="150.668" height="152.475" fill="none"/>
    </clipPath>
  </defs>
  <g id="Group_39" data-name="Group 39" clip-path="url(#clip-path)">
    <path id="Path_53" data-name="Path 53" d="M74.857,96.229l-7.474,12.328-11.031,19.45-8.594,15.258c-1.724,3.061-5.458,2.507-7.971.956-3.414-2.108-5.19-5.6-3.078-9.42l16.958-30.684,9.05-15.871L42.127,94,5.521,104.8c-2.653.183-4.735-4.059-5.212-5.988-.989-4,.4-6.565,4.112-7.669l33.465-9.957,19-6.325-19.45-10.77L17.714,53.5c-3.57-1.916-7.651-3.281-10.293-6.69-1.547-2-.3-5.228.724-6.861,4.615-7.359,13.619,0,23.263,5.189l32.95,17.744-6.617-24.9L52.114,18.937,48.542,6.727C47.766,4.073,49.71,1.622,52.277.709c1.824-.649,4.392-1,5.78-.394,1.69.742,3.1,3.054,3.653,4.9l5.06,16.868c3.684,12.281,7.205,24.194,11.942,36.747l27.37-48.639c1.322-2.349,5.792-1.421,7.5-.549,1.843.939,5.467,4.252,4.152,6.907C112.167,27.8,106.049,38.347,99.913,49.24l-8.846,15.7,10.456-2.378,42.11-12.987c3.011-.929,5.561,2.808,6.56,4.933.888,1.89.739,6.629-2.274,7.595L115.875,72.374,94.994,78.927l25,13.914,20.21,10.641c3.769,1.985,4.772,5.731,2.772,9.379-1.8,3.279-5.414,4.979-8.948,3.09L108.7,102.41,87.779,91.577c5,17.628,10,34.28,15.8,51.273a6.944,6.944,0,0,1-4.108,9.021c-3.322,1.329-7.835.6-9.055-3.565l-4.457-15.2Z" transform="translate(0 0)" fill="#febc00"/>
  </g>
</svg>
